<?xml version="1.0" encoding="UTF-8" standalone="no"?>
<!-- Created with Inkscape (http://www.inkscape.org/) -->

<svg
   width="402.17111"
   height="43.051357"
   viewBox="0 0 402.1711 43.051357"
   version="1.1"
   id="svg1"
   inkscape:version="1.3 (0e150ed, 2023-07-21)"
   sodipodi:docname="hrat-3.2-en-dark.svg"
   inkscape:export-filename="hrat-4-en-dark.svg"
   inkscape:export-xdpi="250"
   inkscape:export-ydpi="250"
   xml:space="preserve"
   xmlns:inkscape="http://www.inkscape.org/namespaces/inkscape"
   xmlns:sodipodi="http://sodipodi.sourceforge.net/DTD/sodipodi-0.dtd"
   xmlns="http://www.w3.org/2000/svg"
   xmlns:svg="http://www.w3.org/2000/svg"><sodipodi:namedview
     id="namedview1"
     pagecolor="#505050"
     bordercolor="#ffffff"
     borderopacity="1"
     inkscape:showpageshadow="0"
     inkscape:pageopacity="0"
     inkscape:pagecheckerboard="1"
     inkscape:deskcolor="#505050"
     inkscape:document-units="mm"
     showguides="true"
     inkscape:zoom="5"
     inkscape:cx="74.7"
     inkscape:cy="32.5"
     inkscape:window-width="1800"
     inkscape:window-height="1126"
     inkscape:window-x="0"
     inkscape:window-y="43"
     inkscape:window-maximized="0"
     inkscape:current-layer="layer2"
     showgrid="false"><sodipodi:guide
       position="-52.776974,99.824794"
       orientation="1,0"
       id="guide1"
       inkscape:locked="false" /><sodipodi:guide
       position="47.727197,336.29488"
       orientation="0,-1"
       id="guide5"
       inkscape:locked="false" /><sodipodi:guide
       position="492.7272,170.29491"
       orientation="1,0"
       id="guide7"
       inkscape:locked="false" /><sodipodi:guide
       position="-88.272804,-124.70509"
       orientation="0,-1"
       id="guide8"
       inkscape:locked="false" /><sodipodi:guide
       position="23.413933,36.115925"
       orientation="1,0"
       id="guide2"
       inkscape:locked="false" /><sodipodi:guide
       position="-9.3109187,10.010986"
       orientation="0,-1"
       id="guide3"
       inkscape:locked="false" /><inkscape:grid
       id="grid27"
       units="mm"
       originx="-0.69254186"
       originy="4.6273556"
       spacingx="3.7795275"
       spacingy="3.7795276"
       empcolor="#0099e5"
       empopacity="0.30196078"
       color="#0099e5"
       opacity="0.14901961"
       empspacing="5"
       dotted="false"
       gridanglex="30"
       gridanglez="30"
       visible="false" /></sodipodi:namedview><defs
     id="defs1" /><g
     inkscape:groupmode="layer"
     id="layer2"
     inkscape:label="logo"
     transform="translate(-0.69254185,4.6273555)"><path
       id="path26"
       style="display:inline;opacity:1;vector-effect:non-scaling-stroke;fill:#007bff;fill-opacity:1;stroke:none;stroke-width:0.939233;stroke-linecap:round;stroke-linejoin:round;stroke-miterlimit:1;stroke-dasharray:none;stroke-opacity:1;-inkscape-stroke:hairline"
       inkscape:transform-center-x="-2.7103261"
       inkscape:transform-center-y="2.4306195"
       d="M 35.218079,32.029594 10.434579,38.424002 0.69254183,21.502147 7.7383908,-0.00717844 30.179388,-2.8484803 49.044489,-4.6273557 50.887094,13.169155 Z"
       inkscape:label="polygon" /><path
       style="font-weight:bold;font-size:37.3333px;font-family:'Dubai W23 Bold';-inkscape-font-specification:'Dubai W23 Bold,  Bold';text-align:center;letter-spacing:0px;word-spacing:0px;text-anchor:middle;display:inline;vector-effect:non-scaling-stroke;fill:#000000;fill-opacity:1;stroke:none;stroke-width:0.801587;stroke-linecap:round;stroke-linejoin:round;stroke-miterlimit:1;stroke-dasharray:none;stroke-opacity:1;-inkscape-stroke:hairline"
       d="M 19.748377,7.0608477 26.72111,26.21342 v 0.239407 H 22.202301 L 20.646154,21.814313 H 13.46394 l -1.526221,4.638514 H 7.4787603 V 26.21342 L 14.451493,7.0608477 Z M 14.601123,18.402762 h 4.907846 L 17.02512,11.011066 Z M 41.265028,7.0608477 V 10.681881 H 35.219997 V 26.452827 H 30.97052 V 10.681881 H 24.77586 V 7.0608477 Z"
       id="text4"
       aria-label="AT"
       inkscape:label="AT" /><g
       id="text30"
       style="font-weight:bold;font-size:14px;font-family:'Atkinson Hyperlegible';-inkscape-font-specification:'Atkinson Hyperlegible Bold';text-align:center;letter-spacing:-0.25px;word-spacing:0px;text-anchor:middle;display:inline;fill:#000000;stroke-linecap:round;stroke-linejoin:round;stroke-miterlimit:1"
       inkscape:label="english text"
       aria-label="Human Resources Analytics&#10;and Transformation"
       transform="translate(5.7999999,0.1)"><path
         style="-inkscape-font-specification:'Helvetica Neue Ultra-Light';fill:#000000"
         d="m 59.32019,4.504 h 0.616 V 9.04 h 6.384 V 4.504 h 0.616 V 14.5 h -0.616 V 9.572 h -6.384 V 14.5 h -0.616 z M 74.050165,14.5 h -0.532 v -1.54 h -0.028 q -0.14,0.406 -0.406,0.728 -0.252,0.308 -0.602,0.532 -0.336,0.224 -0.742,0.336 -0.406,0.112 -0.826,0.112 -0.63,0 -1.078,-0.154 -0.434,-0.154 -0.714,-0.406 -0.28,-0.252 -0.448,-0.56 -0.154,-0.322 -0.224,-0.644 -0.07,-0.322 -0.084,-0.616 -0.014,-0.308 -0.014,-0.532 V 7.304 h 0.532 v 4.55 q 0,0.28 0.042,0.686 0.042,0.392 0.238,0.77 0.21,0.364 0.616,0.63 0.406,0.266 1.148,0.266 0.602,0 1.078,-0.224 0.49,-0.224 0.826,-0.616 0.336,-0.406 0.504,-0.952 0.182,-0.56 0.182,-1.218 V 7.304 h 0.532 z m 1.331987,-7.196 h 0.532 v 1.47 h 0.028 q 0.084,-0.336 0.294,-0.63 0.21,-0.308 0.504,-0.532 0.308,-0.224 0.672,-0.35 0.378,-0.126 0.784,-0.126 0.518,0 0.896,0.14 0.378,0.126 0.644,0.35 0.266,0.21 0.42,0.49 0.154,0.266 0.21,0.546 h 0.028 q 0.322,-0.756 0.854,-1.134 0.546,-0.392 1.428,-0.392 0.49,0 0.896,0.154 0.42,0.14 0.714,0.448 0.308,0.294 0.476,0.756 0.168,0.462 0.168,1.092 V 14.5 h -0.532 V 9.572 q 0,-0.686 -0.21,-1.078 -0.21,-0.392 -0.504,-0.588 -0.28,-0.21 -0.574,-0.252 -0.28,-0.056 -0.434,-0.056 -0.49,0 -0.91,0.168 -0.406,0.168 -0.714,0.504 -0.294,0.336 -0.462,0.84 -0.168,0.49 -0.168,1.134 V 14.5 h -0.532 V 9.572 q 0,-0.672 -0.21,-1.064 -0.196,-0.406 -0.476,-0.602 -0.266,-0.196 -0.56,-0.252 -0.28,-0.056 -0.448,-0.056 -0.378,0 -0.784,0.154 -0.406,0.154 -0.742,0.476 -0.336,0.322 -0.546,0.826 -0.21,0.504 -0.21,1.19 V 14.5 h -0.532 z m 15.653994,5.768 h -0.028 q -0.126,0.322 -0.364,0.616 -0.238,0.28 -0.588,0.504 -0.336,0.224 -0.77,0.35 -0.434,0.126 -0.952,0.126 -1.148,0 -1.778,-0.49 -0.63,-0.504 -0.63,-1.54 0,-0.63 0.252,-1.022 0.252,-0.406 0.63,-0.63 0.392,-0.238 0.854,-0.336 0.476,-0.098 0.91,-0.14 l 0.826,-0.07 q 0.574,-0.042 0.896,-0.126 0.336,-0.098 0.504,-0.252 0.168,-0.168 0.21,-0.42 0.042,-0.252 0.042,-0.63 0,-0.294 -0.112,-0.546 -0.112,-0.252 -0.35,-0.448 -0.238,-0.196 -0.616,-0.308 -0.378,-0.112 -0.924,-0.112 -0.966,0 -1.568,0.476 -0.588,0.476 -0.644,1.442 h -0.532 q 0.056,-1.19 0.756,-1.778 0.714,-0.602 2.016,-0.602 1.302,0 1.89,0.518 0.602,0.504 0.602,1.33 v 4.186 q 0,0.154 0,0.308 0.014,0.154 0.056,0.28 0.042,0.126 0.14,0.21 0.098,0.07 0.28,0.07 0.14,0 0.392,-0.042 v 0.448 q -0.21,0.056 -0.434,0.056 -0.322,0 -0.518,-0.084 -0.182,-0.084 -0.28,-0.224 -0.098,-0.14 -0.14,-0.322 -0.028,-0.196 -0.028,-0.42 z m 0,-2.66 q -0.196,0.238 -0.602,0.322 -0.392,0.084 -0.882,0.126 l -0.896,0.084 q -0.392,0.042 -0.784,0.126 -0.392,0.07 -0.714,0.252 -0.308,0.182 -0.504,0.504 -0.196,0.308 -0.196,0.812 0,0.798 0.504,1.19 0.504,0.378 1.386,0.378 0.91,0 1.442,-0.322 0.532,-0.336 0.812,-0.756 0.28,-0.434 0.35,-0.826 0.084,-0.406 0.084,-0.546 z m 1.975973,-3.108 h 0.532 v 1.54 h 0.028 q 0.14,-0.406 0.392,-0.714 0.266,-0.322 0.602,-0.546 0.35,-0.224 0.756,-0.336 0.406,-0.112 0.826,-0.112 0.63,0 1.064,0.154 0.448,0.154 0.728,0.406 0.28,0.252 0.434,0.574 0.168,0.308 0.238,0.63 0.07,0.322 0.084,0.63 0.014,0.294 0.014,0.518 V 14.5 h -0.532 V 9.95 q 0,-0.266 -0.042,-0.672 -0.042,-0.406 -0.252,-0.77 -0.196,-0.378 -0.616,-0.644 -0.406,-0.266 -1.134,-0.266 -0.616,0 -1.092,0.224 -0.476,0.224 -0.812,0.63 -0.336,0.392 -0.518,0.952 -0.168,0.546 -0.168,1.204 V 14.5 h -0.532 z m 10.755981,-2.8 h 4.172 q 0.658,0 1.232,0.14 0.574,0.126 1.008,0.434 0.434,0.294 0.672,0.784 0.252,0.49 0.252,1.218 0,1.008 -0.574,1.708 -0.56,0.686 -1.568,0.854 V 9.67 q 0.686,0.084 1.078,0.364 0.406,0.28 0.602,0.686 0.196,0.406 0.252,0.896 0.056,0.49 0.056,0.98 0,0.294 0,0.574 0,0.28 0.028,0.532 0.028,0.238 0.084,0.448 0.07,0.21 0.182,0.35 h -0.686 q -0.196,-0.35 -0.224,-0.812 -0.014,-0.476 -0.014,-0.98 0,-0.504 -0.042,-0.994 -0.042,-0.504 -0.266,-0.896 -0.224,-0.392 -0.714,-0.63 -0.476,-0.238 -1.358,-0.238 h -3.556 v 4.55 h -0.616 z m 4.172,4.914 q 0.546,0 1.008,-0.126 0.476,-0.14 0.812,-0.42 0.336,-0.28 0.532,-0.714 0.196,-0.434 0.196,-1.036 0,-0.56 -0.21,-0.952 -0.21,-0.406 -0.56,-0.658 -0.35,-0.252 -0.812,-0.364 -0.462,-0.112 -0.966,-0.112 h -3.556 v 4.382 z m 4.50999,1.554 v 0.084 q 0,0.63 0.168,1.204 0.168,0.574 0.49,1.008 0.336,0.434 0.826,0.686 0.504,0.252 1.162,0.252 1.078,0 1.708,-0.56 0.63,-0.574 0.868,-1.582 h 0.532 q -0.238,1.26 -1.036,1.932 -0.784,0.672 -2.086,0.672 -0.798,0 -1.4,-0.28 -0.588,-0.294 -0.994,-0.784 -0.392,-0.504 -0.588,-1.176 -0.196,-0.686 -0.196,-1.47 0,-0.756 0.196,-1.442 0.21,-0.7 0.616,-1.218 0.406,-0.532 1.008,-0.84 0.616,-0.322 1.442,-0.322 0.756,0 1.33,0.28 0.588,0.28 0.98,0.77 0.392,0.476 0.588,1.12 0.21,0.63 0.21,1.358 0,0.07 -0.014,0.168 0,0.084 0,0.14 z m 5.278,-0.462 q -0.028,-0.588 -0.196,-1.106 -0.168,-0.532 -0.504,-0.924 -0.322,-0.406 -0.798,-0.644 -0.462,-0.238 -1.064,-0.238 -0.644,0 -1.134,0.252 -0.49,0.238 -0.826,0.644 -0.336,0.392 -0.518,0.924 -0.182,0.532 -0.224,1.092 z m 1.77999,1.596 q 0.028,0.504 0.224,0.896 0.196,0.378 0.504,0.658 0.322,0.266 0.742,0.406 0.42,0.14 0.91,0.14 0.35,0 0.742,-0.056 0.406,-0.07 0.742,-0.238 0.35,-0.168 0.574,-0.462 0.224,-0.308 0.224,-0.77 0,-0.602 -0.364,-0.91 -0.364,-0.308 -0.924,-0.476 -0.546,-0.168 -1.19,-0.266 -0.63,-0.112 -1.19,-0.322 -0.546,-0.21 -0.91,-0.588 -0.364,-0.392 -0.364,-1.134 0,-0.532 0.238,-0.882 0.238,-0.364 0.602,-0.574 0.378,-0.21 0.84,-0.294 0.462,-0.098 0.924,-0.098 0.56,0 1.05,0.126 0.49,0.126 0.84,0.406 0.364,0.28 0.56,0.714 0.21,0.434 0.21,1.05 h -0.532 q 0,-0.49 -0.168,-0.84 -0.154,-0.35 -0.448,-0.56 -0.28,-0.224 -0.672,-0.322 -0.392,-0.112 -0.84,-0.112 -0.364,0 -0.742,0.07 -0.364,0.07 -0.658,0.238 -0.294,0.168 -0.49,0.434 -0.182,0.266 -0.182,0.644 0,0.434 0.21,0.7 0.21,0.266 0.546,0.434 0.35,0.154 0.77,0.252 0.434,0.098 0.868,0.196 0.532,0.098 0.994,0.238 0.476,0.126 0.812,0.364 0.35,0.224 0.546,0.588 0.196,0.364 0.196,0.924 0,0.588 -0.266,0.966 -0.266,0.378 -0.672,0.616 -0.406,0.224 -0.91,0.308 -0.49,0.098 -0.966,0.098 -0.616,0 -1.148,-0.168 -0.518,-0.154 -0.91,-0.476 -0.392,-0.336 -0.616,-0.812 -0.224,-0.476 -0.238,-1.106 z m 5.89599,-1.204 q 0,-0.77 0.21,-1.442 0.224,-0.686 0.644,-1.204 0.42,-0.518 1.036,-0.812 0.616,-0.308 1.414,-0.308 0.798,0 1.414,0.308 0.616,0.294 1.036,0.812 0.42,0.518 0.63,1.204 0.224,0.672 0.224,1.442 0,0.77 -0.224,1.456 -0.21,0.686 -0.63,1.204 -0.42,0.504 -1.036,0.812 -0.616,0.294 -1.414,0.294 -0.798,0 -1.414,-0.294 -0.616,-0.308 -1.036,-0.812 -0.42,-0.518 -0.644,-1.204 -0.21,-0.686 -0.21,-1.456 z m 0.532,0 q 0,0.644 0.182,1.246 0.182,0.588 0.532,1.05 0.35,0.462 0.868,0.742 0.518,0.266 1.19,0.266 0.672,0 1.19,-0.266 0.518,-0.28 0.868,-0.742 0.35,-0.462 0.532,-1.05 0.182,-0.602 0.182,-1.246 0,-0.644 -0.182,-1.232 -0.182,-0.602 -0.532,-1.064 -0.35,-0.462 -0.868,-0.728 -0.518,-0.28 -1.19,-0.28 -0.672,0 -1.19,0.28 -0.518,0.266 -0.868,0.728 -0.35,0.462 -0.532,1.064 -0.182,0.588 -0.182,1.232 z m 12.76998,3.598 h -0.532 v -1.54 h -0.028 q -0.14,0.406 -0.406,0.728 -0.252,0.308 -0.602,0.532 -0.336,0.224 -0.742,0.336 -0.406,0.112 -0.826,0.112 -0.63,0 -1.078,-0.154 -0.434,-0.154 -0.714,-0.406 -0.28,-0.252 -0.448,-0.56 -0.154,-0.322 -0.224,-0.644 -0.07,-0.322 -0.084,-0.616 -0.014,-0.308 -0.014,-0.532 V 7.304 h 0.532 v 4.55 q 0,0.28 0.042,0.686 0.042,0.392 0.238,0.77 0.21,0.364 0.616,0.63 0.406,0.266 1.148,0.266 0.602,0 1.078,-0.224 0.49,-0.224 0.826,-0.616 0.336,-0.406 0.504,-0.952 0.182,-0.56 0.182,-1.218 V 7.304 h 0.532 z m 1.84999,-5.6 h 0.042 q 0.098,-0.35 0.35,-0.658 0.266,-0.308 0.63,-0.532 0.378,-0.224 0.826,-0.336 0.462,-0.126 0.952,-0.112 v 0.532 q -0.42,-0.056 -0.966,0.084 -0.532,0.14 -1.022,0.616 -0.196,0.21 -0.35,0.406 -0.14,0.196 -0.238,0.434 -0.098,0.238 -0.154,0.532 -0.056,0.294 -0.07,0.7 V 14.5 h -0.532 V 7.304 h 0.532 z m 8.35998,0.63 q -0.042,-0.476 -0.252,-0.84 -0.196,-0.364 -0.518,-0.602 -0.322,-0.238 -0.756,-0.364 -0.42,-0.126 -0.91,-0.126 -0.672,0 -1.19,0.28 -0.518,0.266 -0.868,0.728 -0.35,0.448 -0.532,1.036 -0.182,0.574 -0.182,1.19 0,0.728 0.168,1.344 0.168,0.616 0.518,1.078 0.35,0.448 0.868,0.7 0.518,0.252 1.218,0.252 0.504,0 0.924,-0.168 0.434,-0.168 0.756,-0.462 0.336,-0.294 0.546,-0.7 0.21,-0.42 0.28,-0.91 h 0.532 q -0.084,0.644 -0.35,1.148 -0.266,0.504 -0.672,0.854 -0.406,0.336 -0.924,0.518 -0.518,0.182 -1.092,0.182 -0.882,0 -1.512,-0.308 -0.616,-0.322 -1.022,-0.854 -0.392,-0.532 -0.588,-1.218 -0.182,-0.7 -0.182,-1.456 0,-0.756 0.21,-1.428 0.224,-0.672 0.644,-1.176 0.42,-0.504 1.036,-0.798 0.616,-0.294 1.414,-0.294 0.588,0 1.092,0.154 0.518,0.14 0.91,0.434 0.406,0.294 0.658,0.756 0.252,0.448 0.308,1.05 z m 1.80799,1.442 v 0.084 q 0,0.63 0.168,1.204 0.168,0.574 0.49,1.008 0.336,0.434 0.826,0.686 0.504,0.252 1.162,0.252 1.078,0 1.708,-0.56 0.63,-0.574 0.868,-1.582 h 0.532 q -0.238,1.26 -1.036,1.932 -0.784,0.672 -2.086,0.672 -0.798,0 -1.4,-0.28 -0.588,-0.294 -0.994,-0.784 -0.392,-0.504 -0.588,-1.176 -0.196,-0.686 -0.196,-1.47 0,-0.756 0.196,-1.442 0.21,-0.7 0.616,-1.218 0.406,-0.532 1.008,-0.84 0.616,-0.322 1.442,-0.322 0.756,0 1.33,0.28 0.588,0.28 0.98,0.77 0.392,0.476 0.588,1.12 0.21,0.63 0.21,1.358 0,0.07 -0.014,0.168 0,0.084 0,0.14 z m 5.278,-0.462 q -0.028,-0.588 -0.196,-1.106 -0.168,-0.532 -0.504,-0.924 -0.322,-0.406 -0.798,-0.644 -0.462,-0.238 -1.064,-0.238 -0.644,0 -1.134,0.252 -0.49,0.238 -0.826,0.644 -0.336,0.392 -0.518,0.924 -0.182,0.532 -0.224,1.092 z m 1.77998,1.596 q 0.028,0.504 0.224,0.896 0.196,0.378 0.504,0.658 0.322,0.266 0.742,0.406 0.42,0.14 0.91,0.14 0.35,0 0.742,-0.056 0.406,-0.07 0.742,-0.238 0.35,-0.168 0.574,-0.462 0.224,-0.308 0.224,-0.77 0,-0.602 -0.364,-0.91 -0.364,-0.308 -0.924,-0.476 -0.546,-0.168 -1.19,-0.266 -0.63,-0.112 -1.19,-0.322 -0.546,-0.21 -0.91,-0.588 -0.364,-0.392 -0.364,-1.134 0,-0.532 0.238,-0.882 0.238,-0.364 0.602,-0.574 0.378,-0.21 0.84,-0.294 0.462,-0.098 0.924,-0.098 0.56,0 1.05,0.126 0.49,0.126 0.84,0.406 0.364,0.28 0.56,0.714 0.21,0.434 0.21,1.05 h -0.532 q 0,-0.49 -0.168,-0.84 -0.154,-0.35 -0.448,-0.56 -0.28,-0.224 -0.672,-0.322 -0.392,-0.112 -0.84,-0.112 -0.364,0 -0.742,0.07 -0.364,0.07 -0.658,0.238 -0.294,0.168 -0.49,0.434 -0.182,0.266 -0.182,0.644 0,0.434 0.21,0.7 0.21,0.266 0.546,0.434 0.35,0.154 0.77,0.252 0.434,0.098 0.868,0.196 0.532,0.098 0.994,0.238 0.476,0.126 0.812,0.364 0.35,0.224 0.546,0.588 0.196,0.364 0.196,0.924 0,0.588 -0.266,0.966 -0.266,0.378 -0.672,0.616 -0.406,0.224 -0.91,0.308 -0.49,0.098 -0.966,0.098 -0.616,0 -1.148,-0.168 -0.518,-0.154 -0.91,-0.476 -0.392,-0.336 -0.616,-0.812 -0.224,-0.476 -0.238,-1.106 z m 12.93999,-7.602 h 0.672 l 3.948,9.996 h -0.658 l -1.26,-3.206 h -4.788 l -1.274,3.206 h -0.658 z m 2.506,6.258 -2.142,-5.656 h -0.028 l -2.226,5.656 z m 2.47997,-3.458 h 0.532 v 1.54 h 0.028 q 0.14,-0.406 0.392,-0.714 0.266,-0.322 0.602,-0.546 0.35,-0.224 0.756,-0.336 0.406,-0.112 0.826,-0.112 0.63,0 1.064,0.154 0.448,0.154 0.728,0.406 0.28,0.252 0.434,0.574 0.168,0.308 0.238,0.63 0.07,0.322 0.084,0.63 0.014,0.294 0.014,0.518 V 14.5 h -0.532 V 9.95 q 0,-0.266 -0.042,-0.672 -0.042,-0.406 -0.252,-0.77 -0.196,-0.378 -0.616,-0.644 -0.406,-0.266 -1.134,-0.266 -0.616,0 -1.092,0.224 -0.476,0.224 -0.812,0.63 -0.336,0.392 -0.518,0.952 -0.168,0.546 -0.168,1.204 V 14.5 h -0.532 z m 11.79,5.768 h -0.028 q -0.126,0.322 -0.364,0.616 -0.238,0.28 -0.588,0.504 -0.336,0.224 -0.77,0.35 -0.434,0.126 -0.952,0.126 -1.148,0 -1.778,-0.49 -0.63,-0.504 -0.63,-1.54 0,-0.63 0.252,-1.022 0.252,-0.406 0.63,-0.63 0.392,-0.238 0.854,-0.336 0.476,-0.098 0.91,-0.14 l 0.826,-0.07 q 0.574,-0.042 0.896,-0.126 0.336,-0.098 0.504,-0.252 0.168,-0.168 0.21,-0.42 0.042,-0.252 0.042,-0.63 0,-0.294 -0.112,-0.546 -0.112,-0.252 -0.35,-0.448 -0.238,-0.196 -0.616,-0.308 -0.378,-0.112 -0.924,-0.112 -0.966,0 -1.568,0.476 -0.588,0.476 -0.644,1.442 h -0.532 q 0.056,-1.19 0.756,-1.778 0.714,-0.602 2.016,-0.602 1.302,0 1.89,0.518 0.602,0.504 0.602,1.33 v 4.186 q 0,0.154 0,0.308 0.014,0.154 0.056,0.28 0.042,0.126 0.14,0.21 0.098,0.07 0.28,0.07 0.14,0 0.392,-0.042 v 0.448 q -0.21,0.056 -0.434,0.056 -0.322,0 -0.518,-0.084 -0.182,-0.084 -0.28,-0.224 -0.098,-0.14 -0.14,-0.322 -0.028,-0.196 -0.028,-0.42 z m 0,-2.66 q -0.196,0.238 -0.602,0.322 -0.392,0.084 -0.882,0.126 l -0.896,0.084 q -0.392,0.042 -0.784,0.126 -0.392,0.07 -0.714,0.252 -0.308,0.182 -0.504,0.504 -0.196,0.308 -0.196,0.812 0,0.798 0.504,1.19 0.504,0.378 1.386,0.378 0.91,0 1.442,-0.322 0.532,-0.336 0.812,-0.756 0.28,-0.434 0.35,-0.826 0.084,-0.406 0.084,-0.546 z m 2.63396,-5.908 V 14.5 h -0.532 V 4.504 Z m 0.57599,2.8 h 0.63 l 2.674,6.566 2.464,-6.566 h 0.602 l -3.08,7.966 q -0.224,0.532 -0.42,0.91 -0.182,0.392 -0.42,0.574 -0.28,0.224 -0.672,0.266 -0.378,0.056 -1.008,0.056 v -0.462 q 0.574,0 0.896,-0.098 0.322,-0.084 0.602,-0.364 0.154,-0.154 0.322,-0.574 0.168,-0.406 0.42,-1.12 z m 9.47999,0.462 h -1.568 v 5.026 q 0,0.434 0.098,0.686 0.098,0.252 0.294,0.392 0.21,0.126 0.49,0.154 0.294,0.028 0.672,0.014 V 14.5 q -0.406,0.028 -0.798,0 -0.378,-0.042 -0.672,-0.21 -0.294,-0.182 -0.476,-0.532 -0.168,-0.35 -0.14,-0.966 V 7.766 h -1.33 V 7.304 h 1.33 v -2.24 h 0.532 v 2.24 h 1.568 z m 0.85598,-1.82 V 4.504 h 0.532 v 1.442 z m 0,8.554 V 7.304 h 0.532 V 14.5 Z m 7.39399,-4.97 q -0.042,-0.476 -0.252,-0.84 -0.196,-0.364 -0.518,-0.602 -0.322,-0.238 -0.756,-0.364 -0.42,-0.126 -0.91,-0.126 -0.672,0 -1.19,0.28 -0.518,0.266 -0.868,0.728 -0.35,0.448 -0.532,1.036 -0.182,0.574 -0.182,1.19 0,0.728 0.168,1.344 0.168,0.616 0.518,1.078 0.35,0.448 0.868,0.7 0.518,0.252 1.218,0.252 0.504,0 0.924,-0.168 0.434,-0.168 0.756,-0.462 0.336,-0.294 0.546,-0.7 0.21,-0.42 0.28,-0.91 h 0.532 q -0.084,0.644 -0.35,1.148 -0.266,0.504 -0.672,0.854 -0.406,0.336 -0.924,0.518 -0.518,0.182 -1.092,0.182 -0.882,0 -1.512,-0.308 -0.616,-0.322 -1.022,-0.854 -0.392,-0.532 -0.588,-1.218 -0.182,-0.7 -0.182,-1.456 0,-0.756 0.21,-1.428 0.224,-0.672 0.644,-1.176 0.42,-0.504 1.036,-0.798 0.616,-0.294 1.414,-0.294 0.588,0 1.092,0.154 0.518,0.14 0.91,0.434 0.406,0.294 0.658,0.756 0.252,0.448 0.308,1.05 z m 1.84999,2.576 q 0.028,0.504 0.224,0.896 0.196,0.378 0.504,0.658 0.322,0.266 0.742,0.406 0.42,0.14 0.91,0.14 0.35,0 0.742,-0.056 0.406,-0.07 0.742,-0.238 0.35,-0.168 0.574,-0.462 0.224,-0.308 0.224,-0.77 0,-0.602 -0.364,-0.91 -0.364,-0.308 -0.924,-0.476 -0.546,-0.168 -1.19,-0.266 -0.63,-0.112 -1.19,-0.322 -0.546,-0.21 -0.91,-0.588 -0.364,-0.392 -0.364,-1.134 0,-0.532 0.238,-0.882 0.238,-0.364 0.602,-0.574 0.378,-0.21 0.84,-0.294 0.462,-0.098 0.924,-0.098 0.56,0 1.05,0.126 0.49,0.126 0.84,0.406 0.364,0.28 0.56,0.714 0.21,0.434 0.21,1.05 h -0.532 q 0,-0.49 -0.168,-0.84 -0.154,-0.35 -0.448,-0.56 -0.28,-0.224 -0.672,-0.322 -0.392,-0.112 -0.84,-0.112 -0.364,0 -0.742,0.07 -0.364,0.07 -0.658,0.238 -0.294,0.168 -0.49,0.434 -0.182,0.266 -0.182,0.644 0,0.434 0.21,0.7 0.21,0.266 0.546,0.434 0.35,0.154 0.77,0.252 0.434,0.098 0.868,0.196 0.532,0.098 0.994,0.238 0.476,0.126 0.812,0.364 0.35,0.224 0.546,0.588 0.196,0.364 0.196,0.924 0,0.588 -0.266,0.966 -0.266,0.378 -0.672,0.616 -0.406,0.224 -0.91,0.308 -0.49,0.098 -0.966,0.098 -0.616,0 -1.148,-0.168 -0.518,-0.154 -0.91,-0.476 -0.392,-0.336 -0.616,-0.812 -0.224,-0.476 -0.238,-1.106 z"
         id="path30" /><path
         style="-inkscape-font-specification:'Helvetica Neue Ultra-Light';fill:#000000"
         d="m 63.99619,26.401137 h -0.028 q -0.126,0.322 -0.364,0.616 -0.238,0.28 -0.588,0.504 -0.336,0.224 -0.77,0.35 -0.434,0.126 -0.952,0.126 -1.148,0 -1.778,-0.49 -0.63,-0.504 -0.63,-1.54 0,-0.63 0.252,-1.022 0.252,-0.406 0.63,-0.63 0.392,-0.238 0.854,-0.336 0.476,-0.098 0.91,-0.14 l 0.826,-0.07 q 0.574,-0.042 0.896,-0.126 0.336,-0.098 0.504,-0.252 0.168,-0.168 0.21,-0.42 0.042,-0.252 0.042,-0.63 0,-0.294 -0.112,-0.546 -0.112,-0.252 -0.35,-0.448 -0.238,-0.196 -0.616,-0.308 -0.378,-0.112 -0.924,-0.112 -0.966,0 -1.568,0.476 -0.588,0.476 -0.644,1.442 h -0.532 q 0.056,-1.19 0.756,-1.778 0.714,-0.602 2.016,-0.602 1.302,0 1.89,0.518 0.602,0.504 0.602,1.33 v 4.186 q 0,0.154 0,0.308 0.014,0.154 0.056,0.28 0.042,0.126 0.14,0.21 0.098,0.07 0.28,0.07 0.14,0 0.392,-0.042 v 0.448 q -0.21,0.056 -0.434,0.056 -0.322,0 -0.518,-0.084 -0.182,-0.084 -0.28,-0.224 -0.098,-0.14 -0.14,-0.322 -0.028,-0.196 -0.028,-0.42 z m 0,-2.66 q -0.196,0.238 -0.602,0.322 -0.392,0.084 -0.882,0.126 l -0.896,0.084 q -0.392,0.042 -0.784,0.126 -0.392,0.07 -0.714,0.252 -0.308,0.182 -0.504,0.504 -0.196,0.308 -0.196,0.812 0,0.798 0.504,1.19 0.504,0.378 1.386,0.378 0.91,0 1.442,-0.322 0.532,-0.336 0.812,-0.756 0.28,-0.434 0.35,-0.826 0.084,-0.406 0.084,-0.546 z m 1.975974,-3.108 h 0.532 v 1.54 h 0.028 q 0.14,-0.406 0.392,-0.714 0.266,-0.322 0.602,-0.546 0.35,-0.224 0.756,-0.336 0.406,-0.112 0.826,-0.112 0.63,0 1.064,0.154 0.448,0.154 0.728,0.406 0.28,0.252 0.434,0.574 0.168,0.308 0.238,0.63 0.07,0.322 0.084,0.63 0.014,0.294 0.014,0.518 v 4.452 h -0.532 v -4.55 q 0,-0.266 -0.042,-0.672 -0.042,-0.406 -0.252,-0.77 -0.196,-0.378 -0.616,-0.644 -0.406,-0.266 -1.134,-0.266 -0.616,0 -1.092,0.224 -0.476,0.224 -0.812,0.63 -0.336,0.392 -0.518,0.952 -0.168,0.546 -0.168,1.204 v 3.892 h -0.532 z m 12.573987,5.656 h -0.028 q -0.448,0.854 -1.12,1.288 -0.672,0.42 -1.638,0.42 -0.812,0 -1.4,-0.308 -0.588,-0.308 -0.966,-0.826 -0.378,-0.518 -0.56,-1.19 -0.182,-0.686 -0.182,-1.428 0,-0.798 0.196,-1.484 0.196,-0.7 0.588,-1.204 0.406,-0.504 1.008,-0.798 0.602,-0.294 1.414,-0.294 0.434,0 0.854,0.126 0.42,0.112 0.77,0.336 0.364,0.224 0.63,0.56 0.266,0.336 0.406,0.756 h 0.028 v -4.41 h 0.532 v 9.996 h -0.532 z m -2.674,1.246 q 0.686,0 1.176,-0.28 0.504,-0.28 0.826,-0.742 0.336,-0.462 0.49,-1.05 0.168,-0.602 0.168,-1.218 0,-0.63 -0.168,-1.218 -0.154,-0.602 -0.476,-1.064 -0.322,-0.476 -0.84,-0.756 -0.504,-0.28 -1.19,-0.28 -0.714,0 -1.218,0.28 -0.504,0.266 -0.84,0.728 -0.322,0.462 -0.476,1.064 -0.14,0.602 -0.14,1.246 0,0.63 0.154,1.232 0.168,0.588 0.49,1.05 0.336,0.462 0.84,0.742 0.504,0.266 1.204,0.266 z m 7.311995,-9.17 v -0.532 h 7.658 v 0.532 h -3.528 v 9.464 h -0.616 v -9.464 z m 7.183978,3.864 h 0.042 q 0.098,-0.35 0.35,-0.658 0.266,-0.308 0.63,-0.532 0.378,-0.224 0.826,-0.336 0.462,-0.126 0.952,-0.112 v 0.532 q -0.42,-0.056 -0.966,0.084 -0.532,0.14 -1.022,0.616 -0.196,0.21 -0.35,0.406 -0.14,0.196 -0.238,0.434 -0.098,0.238 -0.154,0.532 -0.056,0.294 -0.07,0.7 v 3.934 h -0.532 v -7.196 h 0.532 z m 7.603992,4.172 h -0.028 q -0.126,0.322 -0.364,0.616 -0.238,0.28 -0.588,0.504 -0.336,0.224 -0.77,0.35 -0.434,0.126 -0.952,0.126 -1.148,0 -1.778,-0.49 -0.63,-0.504 -0.63,-1.54 0,-0.63 0.252,-1.022 0.252,-0.406 0.63,-0.63 0.392,-0.238 0.854,-0.336 0.476,-0.098 0.91,-0.14 l 0.826,-0.07 q 0.574,-0.042 0.896,-0.126 0.336,-0.098 0.504,-0.252 0.168,-0.168 0.21,-0.42 0.042,-0.252 0.042,-0.63 0,-0.294 -0.112,-0.546 -0.112,-0.252 -0.35,-0.448 -0.238,-0.196 -0.616,-0.308 -0.378,-0.112 -0.924,-0.112 -0.966,0 -1.568,0.476 -0.588,0.476 -0.644,1.442 h -0.532 q 0.056,-1.19 0.756,-1.778 0.714,-0.602 2.016,-0.602 1.302,0 1.89,0.518 0.602,0.504 0.602,1.33 v 4.186 q 0,0.154 0,0.308 0.014,0.154 0.056,0.28 0.042,0.126 0.14,0.21 0.098,0.07 0.28,0.07 0.14,0 0.392,-0.042 v 0.448 q -0.21,0.056 -0.434,0.056 -0.322,0 -0.518,-0.084 -0.182,-0.084 -0.28,-0.224 -0.098,-0.14 -0.14,-0.322 -0.028,-0.196 -0.028,-0.42 z m 0,-2.66 q -0.196,0.238 -0.602,0.322 -0.392,0.084 -0.882,0.126 l -0.896,0.084 q -0.392,0.042 -0.784,0.126 -0.392,0.07 -0.714,0.252 -0.308,0.182 -0.504,0.504 -0.196,0.308 -0.196,0.812 0,0.798 0.504,1.19 0.504,0.378 1.386,0.378 0.91,0 1.442,-0.322 0.532,-0.336 0.812,-0.756 0.28,-0.434 0.35,-0.826 0.084,-0.406 0.084,-0.546 z m 1.975973,-3.108 h 0.532001 v 1.54 h 0.028 q 0.14,-0.406 0.392,-0.714 0.266,-0.322 0.602,-0.546 0.35,-0.224 0.756,-0.336 0.406,-0.112 0.826,-0.112 0.63,0 1.064,0.154 0.448,0.154 0.728,0.406 0.28,0.252 0.434,0.574 0.168,0.308 0.238,0.63 0.07,0.322 0.084,0.63 0.014,0.294 0.014,0.518 v 4.452 h -0.532 v -4.55 q 0,-0.266 -0.042,-0.672 -0.042,-0.406 -0.252,-0.77 -0.196,-0.378 -0.616,-0.644 -0.406,-0.266 -1.134,-0.266 -0.616,0 -1.092,0.224 -0.476,0.224 -0.812,0.63 -0.336,0.392 -0.518,0.952 -0.168,0.546 -0.168,1.204 v 3.892 h -0.532001 z m 7.267991,4.802 q 0.028,0.504 0.224,0.896 0.196,0.378 0.504,0.658 0.322,0.266 0.742,0.406 0.42,0.14 0.91,0.14 0.35,0 0.742,-0.056 0.406,-0.07 0.742,-0.238 0.35,-0.168 0.574,-0.462 0.224,-0.308 0.224,-0.77 0,-0.602 -0.364,-0.91 -0.364,-0.308 -0.924,-0.476 -0.546,-0.168 -1.19,-0.266 -0.63,-0.112 -1.19,-0.322 -0.546,-0.21 -0.91,-0.588 -0.364,-0.392 -0.364,-1.134 0,-0.532 0.238,-0.882 0.238,-0.364 0.602,-0.574 0.378,-0.21 0.84,-0.294 0.462,-0.098 0.924,-0.098 0.56,0 1.05,0.126 0.49,0.126 0.84,0.406 0.364,0.28 0.56,0.714 0.21,0.434 0.21,1.05 h -0.532 q 0,-0.49 -0.168,-0.84 -0.154,-0.35 -0.448,-0.56 -0.28,-0.224 -0.672,-0.322 -0.392,-0.112 -0.84,-0.112 -0.364,0 -0.742,0.07 -0.364,0.07 -0.658,0.238 -0.294,0.168 -0.49,0.434 -0.182,0.266 -0.182,0.644 0,0.434 0.21,0.7 0.21,0.266 0.546,0.434 0.35,0.154 0.77,0.252 0.434,0.098 0.868,0.196 0.532,0.098 0.994,0.238 0.476,0.126 0.812,0.364 0.35,0.224 0.546,0.588 0.196,0.364 0.196,0.924 0,0.588 -0.266,0.966 -0.266,0.378 -0.672,0.616 -0.406,0.224 -0.91,0.308 -0.49,0.098 -0.966,0.098 -0.616,0 -1.148,-0.168 -0.518,-0.154 -0.91,-0.476 -0.392,-0.336 -0.616,-0.812 -0.224,-0.476 -0.238,-1.106 z m 5.44798,-4.34 v -0.462 h 1.288 v -1.484 q 0,-0.378 0.126,-0.644 0.126,-0.28 0.336,-0.448 0.224,-0.168 0.504,-0.252 0.294,-0.084 0.616,-0.084 0.238,0 0.63,0.07 v 0.462 q -0.392,-0.07 -0.63,-0.07 -0.448,0 -0.756,0.21 -0.294,0.196 -0.294,0.798 v 1.442 h 1.498 v 0.462 h -1.498 v 6.734 h -0.532 v -6.734 z m 3.57199,3.136 q 0,-0.77 0.21,-1.442 0.224,-0.686 0.644,-1.204 0.42,-0.518 1.036,-0.812 0.616,-0.308 1.414,-0.308 0.798,0 1.414,0.308 0.616,0.294 1.036,0.812 0.42,0.518 0.63,1.204 0.224,0.672 0.224,1.442 0,0.77 -0.224,1.456 -0.21,0.686 -0.63,1.204 -0.42,0.504 -1.036,0.812 -0.616,0.294 -1.414,0.294 -0.798,0 -1.414,-0.294 -0.616,-0.308 -1.036,-0.812 -0.42,-0.518 -0.644,-1.204 -0.21,-0.686 -0.21,-1.456 z m 0.532,0 q 0,0.644 0.182,1.246 0.182,0.588 0.532,1.05 0.35,0.462 0.868,0.742 0.518,0.266 1.19,0.266 0.672,0 1.19,-0.266 0.518,-0.28 0.868,-0.742 0.35,-0.462 0.532,-1.05 0.182,-0.602 0.182,-1.246 0,-0.644 -0.182,-1.232 -0.182,-0.602 -0.532,-1.064 -0.35,-0.462 -0.868,-0.728 -0.518,-0.28 -1.19,-0.28 -0.672,0 -1.19,0.28 -0.518,0.266 -0.868,0.728 -0.35,0.462 -0.532,1.064 -0.182,0.588 -0.182,1.232 z m 7.60398,-2.002 h 0.042 q 0.098,-0.35 0.35,-0.658 0.266,-0.308 0.63,-0.532 0.378,-0.224 0.826,-0.336 0.462,-0.126 0.952,-0.112 v 0.532 q -0.42,-0.056 -0.966,0.084 -0.532,0.14 -1.022,0.616 -0.196,0.21 -0.35,0.406 -0.14,0.196 -0.238,0.434 -0.098,0.238 -0.154,0.532 -0.056,0.294 -0.07,0.7 v 3.934 h -0.532 v -7.196 h 0.532 z m 3.124,-1.596 h 0.532 v 1.47 h 0.028 q 0.084,-0.336 0.294,-0.63 0.21,-0.308 0.504,-0.532 0.308,-0.224 0.672,-0.35 0.378,-0.126 0.784,-0.126 0.518,0 0.896,0.14 0.378,0.126 0.644,0.35 0.266,0.21 0.42,0.49 0.154,0.266 0.21,0.546 h 0.028 q 0.322,-0.756 0.854,-1.134 0.546,-0.392 1.428,-0.392 0.49,0 0.896,0.154 0.42,0.14 0.714,0.448 0.308,0.294 0.476,0.756 0.168,0.462 0.168,1.092 v 4.914 h -0.532 v -4.928 q 0,-0.686 -0.21,-1.078 -0.21,-0.392 -0.504,-0.588 -0.28,-0.21 -0.574,-0.252 -0.28,-0.056 -0.434,-0.056 -0.49,0 -0.91,0.168 -0.406,0.168 -0.714,0.504 -0.294,0.336 -0.462,0.84 -0.168,0.49 -0.168,1.134 v 4.256 h -0.532 v -4.928 q 0,-0.672 -0.21,-1.064 -0.196,-0.406 -0.476,-0.602 -0.266,-0.196 -0.56,-0.252 -0.28,-0.056 -0.448,-0.056 -0.378,0 -0.784,0.154 -0.406,0.154 -0.742,0.476 -0.336,0.322 -0.546,0.826 -0.21,0.504 -0.21,1.19 v 4.256 h -0.532 z m 15.654,5.768 h -0.028 q -0.126,0.322 -0.364,0.616 -0.238,0.28 -0.588,0.504 -0.336,0.224 -0.77,0.35 -0.434,0.126 -0.952,0.126 -1.148,0 -1.778,-0.49 -0.63,-0.504 -0.63,-1.54 0,-0.63 0.252,-1.022 0.252,-0.406 0.63,-0.63 0.392,-0.238 0.854,-0.336 0.476,-0.098 0.91,-0.14 l 0.826,-0.07 q 0.574,-0.042 0.896,-0.126 0.336,-0.098 0.504,-0.252 0.168,-0.168 0.21,-0.42 0.042,-0.252 0.042,-0.63 0,-0.294 -0.112,-0.546 -0.112,-0.252 -0.35,-0.448 -0.238,-0.196 -0.616,-0.308 -0.378,-0.112 -0.924,-0.112 -0.966,0 -1.568,0.476 -0.588,0.476 -0.644,1.442 h -0.532 q 0.056,-1.19 0.756,-1.778 0.714,-0.602 2.016,-0.602 1.302,0 1.89,0.518 0.602,0.504 0.602,1.33 v 4.186 q 0,0.154 0,0.308 0.014,0.154 0.056,0.28 0.042,0.126 0.14,0.21 0.098,0.07 0.28,0.07 0.14,0 0.392,-0.042 v 0.448 q -0.21,0.056 -0.434,0.056 -0.322,0 -0.518,-0.084 -0.182,-0.084 -0.28,-0.224 -0.098,-0.14 -0.14,-0.322 -0.028,-0.196 -0.028,-0.42 z m 0,-2.66 q -0.196,0.238 -0.602,0.322 -0.392,0.084 -0.882,0.126 l -0.896,0.084 q -0.392,0.042 -0.784,0.126 -0.392,0.07 -0.714,0.252 -0.308,0.182 -0.504,0.504 -0.196,0.308 -0.196,0.812 0,0.798 0.504,1.19 0.504,0.378 1.386,0.378 0.91,0 1.442,-0.322 0.532,-0.336 0.812,-0.756 0.28,-0.434 0.35,-0.826 0.084,-0.406 0.084,-0.546 z m 4.62197,-2.646 h -1.568 v 5.026 q 0,0.434 0.098,0.686 0.098,0.252 0.294,0.392 0.21,0.126 0.49,0.154 0.294,0.028 0.672,0.014 v 0.462 q -0.406,0.028 -0.798,0 -0.378,-0.042 -0.672,-0.21 -0.294,-0.182 -0.476,-0.532 -0.168,-0.35 -0.14,-0.966 v -5.026 h -1.33 v -0.462 h 1.33 v -2.24 h 0.532 v 2.24 h 1.568 z m 0.85598,-1.82 v -1.442 h 0.532 v 1.442 z m 0,8.554 v -7.196 h 0.532 v 7.196 z m 1.63999,-3.598 q 0,-0.77 0.21,-1.442 0.224,-0.686 0.644,-1.204 0.42,-0.518 1.036,-0.812 0.616,-0.308 1.414,-0.308 0.798,0 1.414,0.308 0.616,0.294 1.036,0.812 0.42,0.518 0.63,1.204 0.224,0.672 0.224,1.442 0,0.77 -0.224,1.456 -0.21,0.686 -0.63,1.204 -0.42,0.504 -1.036,0.812 -0.616,0.294 -1.414,0.294 -0.798,0 -1.414,-0.294 -0.616,-0.308 -1.036,-0.812 -0.42,-0.518 -0.644,-1.204 -0.21,-0.686 -0.21,-1.456 z m 0.532,0 q 0,0.644 0.182,1.246 0.182,0.588 0.532,1.05 0.35,0.462 0.868,0.742 0.518,0.266 1.19,0.266 0.672,0 1.19,-0.266 0.518,-0.28 0.868,-0.742 0.35,-0.462 0.532,-1.05 0.182,-0.602 0.182,-1.246 0,-0.644 -0.182,-1.232 -0.182,-0.602 -0.532,-1.064 -0.35,-0.462 -0.868,-0.728 -0.518,-0.28 -1.19,-0.28 -0.672,0 -1.19,0.28 -0.518,0.266 -0.868,0.728 -0.35,0.462 -0.532,1.064 -0.182,0.588 -0.182,1.232 z m 7.07199,-3.598 h 0.532 v 1.54 h 0.028 q 0.14,-0.406 0.392,-0.714 0.266,-0.322 0.602,-0.546 0.35,-0.224 0.756,-0.336 0.406,-0.112 0.826,-0.112 0.63,0 1.064,0.154 0.448,0.154 0.728,0.406 0.28,0.252 0.434,0.574 0.168,0.308 0.238,0.63 0.07,0.322 0.084,0.63 0.014,0.294 0.014,0.518 v 4.452 h -0.532 v -4.55 q 0,-0.266 -0.042,-0.672 -0.042,-0.406 -0.252,-0.77 -0.196,-0.378 -0.616,-0.644 -0.406,-0.266 -1.134,-0.266 -0.616,0 -1.092,0.224 -0.476,0.224 -0.812,0.63 -0.336,0.392 -0.518,0.952 -0.168,0.546 -0.168,1.204 v 3.892 h -0.532 z"
         id="path31" /></g><g
       id="text35"
       style="font-weight:bold;font-size:14px;font-family:'Atkinson Hyperlegible';-inkscape-font-specification:'Atkinson Hyperlegible Bold';text-align:center;letter-spacing:-0.25px;word-spacing:0px;text-anchor:middle;fill:#000000;stroke-linecap:round;stroke-linejoin:round;stroke-miterlimit:1"
       inkscape:label="french text"
       aria-label="Analyse et transformation des&#10;ressources humaines"
       transform="translate(10.6)"><path
         style="-inkscape-font-specification:'Helvetica Neue Ultra-Light';fill:#000000"
         d="m 232.20201,4.6000007 h 0.672 l 3.948,9.9960003 h -0.658 l -1.26,-3.206 h -4.788 l -1.274,3.206 h -0.658 z m 2.506,6.2580003 -2.142,-5.6560003 h -0.028 l -2.226,5.6560003 z m 2.47997,-3.4580003 h 0.532 v 1.54 h 0.028 q 0.14,-0.406 0.392,-0.714 0.266,-0.322 0.602,-0.546 0.35,-0.224 0.756,-0.336 0.406,-0.112 0.826,-0.112 0.63,0 1.064,0.154 0.448,0.154 0.728,0.406 0.28,0.252 0.434,0.574 0.168,0.308 0.238,0.63 0.07,0.322 0.084,0.63 0.014,0.294 0.014,0.5180003 v 4.452 h -0.532 v -4.55 q 0,-0.2660003 -0.042,-0.6720003 -0.042,-0.406 -0.252,-0.77 -0.196,-0.378 -0.616,-0.644 -0.406,-0.266 -1.134,-0.266 -0.616,0 -1.092,0.224 -0.476,0.224 -0.812,0.63 -0.336,0.392 -0.518,0.952 -0.168,0.5460003 -0.168,1.2040003 v 3.892 h -0.532 z m 11.78999,5.7680003 h -0.028 q -0.126,0.322 -0.364,0.616 -0.238,0.28 -0.588,0.504 -0.336,0.224 -0.77,0.35 -0.434,0.126 -0.952,0.126 -1.148,0 -1.778,-0.49 -0.63,-0.504 -0.63,-1.54 0,-0.63 0.252,-1.022 0.252,-0.406 0.63,-0.63 0.392,-0.238 0.854,-0.336 0.476,-0.098 0.91,-0.14 l 0.826,-0.07 q 0.574,-0.042 0.896,-0.126 0.336,-0.098 0.504,-0.252 0.168,-0.1680003 0.21,-0.4200003 0.042,-0.252 0.042,-0.63 0,-0.294 -0.112,-0.546 -0.112,-0.252 -0.35,-0.448 -0.238,-0.196 -0.616,-0.308 -0.378,-0.112 -0.924,-0.112 -0.966,0 -1.568,0.476 -0.588,0.476 -0.644,1.442 h -0.532 q 0.056,-1.19 0.756,-1.778 0.714,-0.602 2.016,-0.602 1.302,0 1.89,0.518 0.602,0.504 0.602,1.33 v 4.1860003 q 0,0.154 0,0.308 0.014,0.154 0.056,0.28 0.042,0.126 0.14,0.21 0.098,0.07 0.28,0.07 0.14,0 0.392,-0.042 v 0.448 q -0.21,0.056 -0.434,0.056 -0.322,0 -0.518,-0.084 -0.182,-0.084 -0.28,-0.224 -0.098,-0.14 -0.14,-0.322 -0.028,-0.196 -0.028,-0.42 z m 0,-2.66 q -0.196,0.238 -0.602,0.322 -0.392,0.084 -0.882,0.126 l -0.896,0.084 q -0.392,0.042 -0.784,0.126 -0.392,0.07 -0.714,0.252 -0.308,0.182 -0.504,0.504 -0.196,0.308 -0.196,0.812 0,0.798 0.504,1.19 0.504,0.378 1.386,0.378 0.91,0 1.442,-0.322 0.532,-0.336 0.812,-0.756 0.28,-0.434 0.35,-0.826 0.084,-0.406 0.084,-0.546 z m 2.63397,-5.9080003 v 9.9960003 h -0.532 V 4.6000007 Z m 0.57599,2.8 h 0.63 l 2.674,6.5660003 2.464,-6.5660003 h 0.602 l -3.08,7.9660003 q -0.224,0.532 -0.42,0.91 -0.182,0.392 -0.42,0.574 -0.28,0.224 -0.672,0.266 -0.378,0.056 -1.008,0.056 v -0.462 q 0.574,0 0.896,-0.098 0.322,-0.084 0.602,-0.364 0.154,-0.154 0.322,-0.574 0.168,-0.406 0.42,-1.12 z m 7.08598,4.8020003 q 0.028,0.504 0.224,0.896 0.196,0.378 0.504,0.658 0.322,0.266 0.742,0.406 0.42,0.14 0.91,0.14 0.35,0 0.742,-0.056 0.406,-0.07 0.742,-0.238 0.35,-0.168 0.574,-0.462 0.224,-0.308 0.224,-0.77 0,-0.602 -0.364,-0.91 -0.364,-0.308 -0.924,-0.476 -0.546,-0.168 -1.19,-0.266 -0.63,-0.112 -1.19,-0.322 -0.546,-0.21 -0.91,-0.588 -0.364,-0.3920003 -0.364,-1.1340003 0,-0.532 0.238,-0.882 0.238,-0.364 0.602,-0.574 0.378,-0.21 0.84,-0.294 0.462,-0.098 0.924,-0.098 0.56,0 1.05,0.126 0.49,0.126 0.84,0.406 0.364,0.28 0.56,0.714 0.21,0.434 0.21,1.05 h -0.532 q 0,-0.49 -0.168,-0.84 -0.154,-0.35 -0.448,-0.56 -0.28,-0.224 -0.672,-0.322 -0.392,-0.112 -0.84,-0.112 -0.364,0 -0.742,0.07 -0.364,0.07 -0.658,0.238 -0.294,0.168 -0.49,0.434 -0.182,0.266 -0.182,0.644 0,0.434 0.21,0.7 0.21,0.2660003 0.546,0.4340003 0.35,0.154 0.77,0.252 0.434,0.098 0.868,0.196 0.532,0.098 0.994,0.238 0.476,0.126 0.812,0.364 0.35,0.224 0.546,0.588 0.196,0.364 0.196,0.924 0,0.588 -0.266,0.966 -0.266,0.378 -0.672,0.616 -0.406,0.224 -0.91,0.308 -0.49,0.098 -0.966,0.098 -0.616,0 -1.148,-0.168 -0.518,-0.154 -0.91,-0.476 -0.392,-0.336 -0.616,-0.812 -0.224,-0.476 -0.238,-1.106 z m 6.44199,-1.134 v 0.084 q 0,0.63 0.168,1.204 0.168,0.574 0.49,1.008 0.336,0.434 0.826,0.686 0.504,0.252 1.162,0.252 1.078,0 1.708,-0.56 0.63,-0.574 0.868,-1.582 h 0.532 q -0.238,1.26 -1.036,1.932 -0.784,0.672 -2.086,0.672 -0.798,0 -1.4,-0.28 -0.588,-0.294 -0.994,-0.784 -0.392,-0.504 -0.588,-1.176 -0.196,-0.686 -0.196,-1.47 0,-0.756 0.196,-1.4420003 0.21,-0.7 0.616,-1.218 0.406,-0.532 1.008,-0.84 0.616,-0.322 1.442,-0.322 0.756,0 1.33,0.28 0.588,0.28 0.98,0.77 0.392,0.476 0.588,1.12 0.21,0.6300003 0.21,1.3580003 0,0.07 -0.014,0.168 0,0.084 0,0.14 z m 5.278,-0.462 q -0.028,-0.588 -0.196,-1.1060003 -0.168,-0.532 -0.504,-0.924 -0.322,-0.406 -0.798,-0.644 -0.462,-0.238 -1.064,-0.238 -0.644,0 -1.134,0.252 -0.49,0.238 -0.826,0.644 -0.336,0.392 -0.518,0.924 -0.182,0.5320003 -0.224,1.0920003 z m 5.37998,0.462 v 0.084 q 0,0.63 0.168,1.204 0.168,0.574 0.49,1.008 0.336,0.434 0.826,0.686 0.504,0.252 1.162,0.252 1.078,0 1.708,-0.56 0.63,-0.574 0.868,-1.582 h 0.532 q -0.238,1.26 -1.036,1.932 -0.784,0.672 -2.086,0.672 -0.798,0 -1.4,-0.28 -0.588,-0.294 -0.994,-0.784 -0.392,-0.504 -0.588,-1.176 -0.196,-0.686 -0.196,-1.47 0,-0.756 0.196,-1.4420003 0.21,-0.7 0.616,-1.218 0.406,-0.532 1.008,-0.84 0.616,-0.322 1.442,-0.322 0.756,0 1.33,0.28 0.588,0.28 0.98,0.77 0.392,0.476 0.588,1.12 0.21,0.6300003 0.21,1.3580003 0,0.07 -0.014,0.168 0,0.084 0,0.14 z m 5.278,-0.462 q -0.028,-0.588 -0.196,-1.1060003 -0.168,-0.532 -0.504,-0.924 -0.322,-0.406 -0.798,-0.644 -0.462,-0.238 -1.064,-0.238 -0.644,0 -1.134,0.252 -0.49,0.238 -0.826,0.644 -0.336,0.392 -0.518,0.924 -0.182,0.5320003 -0.224,1.0920003 z m 4.17399,-2.7440003 h -1.568 v 5.0260003 q 0,0.434 0.098,0.686 0.098,0.252 0.294,0.392 0.21,0.126 0.49,0.154 0.294,0.028 0.672,0.014 v 0.462 q -0.406,0.028 -0.798,0 -0.378,-0.042 -0.672,-0.21 -0.294,-0.182 -0.476,-0.532 -0.168,-0.35 -0.14,-0.966 V 7.8620007 h -1.33 v -0.462 h 1.33 v -2.24 h 0.532 v 2.24 h 1.568 z m 7.01798,0 h -1.568 v 5.0260003 q 0,0.434 0.098,0.686 0.098,0.252 0.294,0.392 0.21,0.126 0.49,0.154 0.294,0.028 0.672,0.014 v 0.462 q -0.406,0.028 -0.798,0 -0.378,-0.042 -0.672,-0.21 -0.294,-0.182 -0.476,-0.532 -0.168,-0.35 -0.14,-0.966 V 7.8620007 h -1.33 v -0.462 h 1.33 v -2.24 h 0.532 v 2.24 h 1.568 z m 1.26199,1.134 h 0.042 q 0.098,-0.35 0.35,-0.658 0.266,-0.308 0.63,-0.532 0.378,-0.224 0.826,-0.336 0.462,-0.126 0.952,-0.112 v 0.532 q -0.42,-0.056 -0.966,0.084 -0.532,0.14 -1.022,0.616 -0.196,0.21 -0.35,0.406 -0.14,0.196 -0.238,0.434 -0.098,0.238 -0.154,0.532 -0.056,0.2940003 -0.07,0.7000003 v 3.934 h -0.532 V 7.4000007 h 0.532 z m 7.60398,4.1720003 h -0.028 q -0.126,0.322 -0.364,0.616 -0.238,0.28 -0.588,0.504 -0.336,0.224 -0.77,0.35 -0.434,0.126 -0.952,0.126 -1.148,0 -1.778,-0.49 -0.63,-0.504 -0.63,-1.54 0,-0.63 0.252,-1.022 0.252,-0.406 0.63,-0.63 0.392,-0.238 0.854,-0.336 0.476,-0.098 0.91,-0.14 l 0.826,-0.07 q 0.574,-0.042 0.896,-0.126 0.336,-0.098 0.504,-0.252 0.168,-0.1680003 0.21,-0.4200003 0.042,-0.252 0.042,-0.63 0,-0.294 -0.112,-0.546 -0.112,-0.252 -0.35,-0.448 -0.238,-0.196 -0.616,-0.308 -0.378,-0.112 -0.924,-0.112 -0.966,0 -1.568,0.476 -0.588,0.476 -0.644,1.442 h -0.532 q 0.056,-1.19 0.756,-1.778 0.714,-0.602 2.016,-0.602 1.302,0 1.89,0.518 0.602,0.504 0.602,1.33 v 4.1860003 q 0,0.154 0,0.308 0.014,0.154 0.056,0.28 0.042,0.126 0.14,0.21 0.098,0.07 0.28,0.07 0.14,0 0.392,-0.042 v 0.448 q -0.21,0.056 -0.434,0.056 -0.322,0 -0.518,-0.084 -0.182,-0.084 -0.28,-0.224 -0.098,-0.14 -0.14,-0.322 -0.028,-0.196 -0.028,-0.42 z m 0,-2.66 q -0.196,0.238 -0.602,0.322 -0.392,0.084 -0.882,0.126 l -0.896,0.084 q -0.392,0.042 -0.784,0.126 -0.392,0.07 -0.714,0.252 -0.308,0.182 -0.504,0.504 -0.196,0.308 -0.196,0.812 0,0.798 0.504,1.19 0.504,0.378 1.386,0.378 0.91,0 1.442,-0.322 0.532,-0.336 0.812,-0.756 0.28,-0.434 0.35,-0.826 0.084,-0.406 0.084,-0.546 z m 1.97598,-3.1080003 h 0.532 v 1.54 h 0.028 q 0.14,-0.406 0.392,-0.714 0.266,-0.322 0.602,-0.546 0.35,-0.224 0.756,-0.336 0.406,-0.112 0.826,-0.112 0.63,0 1.064,0.154 0.448,0.154 0.728,0.406 0.28,0.252 0.434,0.574 0.168,0.308 0.238,0.63 0.07,0.322 0.084,0.63 0.014,0.294 0.014,0.5180003 v 4.452 h -0.532 v -4.55 q 0,-0.2660003 -0.042,-0.6720003 -0.042,-0.406 -0.252,-0.77 -0.196,-0.378 -0.616,-0.644 -0.406,-0.266 -1.134,-0.266 -0.616,0 -1.092,0.224 -0.476,0.224 -0.812,0.63 -0.336,0.392 -0.518,0.952 -0.168,0.5460003 -0.168,1.2040003 v 3.892 h -0.532 z m 7.26799,4.8020003 q 0.028,0.504 0.224,0.896 0.196,0.378 0.504,0.658 0.322,0.266 0.742,0.406 0.42,0.14 0.91,0.14 0.35,0 0.742,-0.056 0.406,-0.07 0.742,-0.238 0.35,-0.168 0.574,-0.462 0.224,-0.308 0.224,-0.77 0,-0.602 -0.364,-0.91 -0.364,-0.308 -0.924,-0.476 -0.546,-0.168 -1.19,-0.266 -0.63,-0.112 -1.19,-0.322 -0.546,-0.21 -0.91,-0.588 -0.364,-0.3920003 -0.364,-1.1340003 0,-0.532 0.238,-0.882 0.238,-0.364 0.602,-0.574 0.378,-0.21 0.84,-0.294 0.462,-0.098 0.924,-0.098 0.56,0 1.05,0.126 0.49,0.126 0.84,0.406 0.364,0.28 0.56,0.714 0.21,0.434 0.21,1.05 h -0.532 q 0,-0.49 -0.168,-0.84 -0.154,-0.35 -0.448,-0.56 -0.28,-0.224 -0.672,-0.322 -0.392,-0.112 -0.84,-0.112 -0.364,0 -0.742,0.07 -0.364,0.07 -0.658,0.238 -0.294,0.168 -0.49,0.434 -0.182,0.266 -0.182,0.644 0,0.434 0.21,0.7 0.21,0.2660003 0.546,0.4340003 0.35,0.154 0.77,0.252 0.434,0.098 0.868,0.196 0.532,0.098 0.994,0.238 0.476,0.126 0.812,0.364 0.35,0.224 0.546,0.588 0.196,0.364 0.196,0.924 0,0.588 -0.266,0.966 -0.266,0.378 -0.672,0.616 -0.406,0.224 -0.91,0.308 -0.49,0.098 -0.966,0.098 -0.616,0 -1.148,-0.168 -0.518,-0.154 -0.91,-0.476 -0.392,-0.336 -0.616,-0.812 -0.224,-0.476 -0.238,-1.106 z m 5.44799,-4.3400003 v -0.462 h 1.288 v -1.484 q 0,-0.378 0.126,-0.644 0.126,-0.28 0.336,-0.448 0.224,-0.168 0.504,-0.252 0.294,-0.084 0.616,-0.084 0.238,0 0.63,0.07 v 0.462 q -0.392,-0.07 -0.63,-0.07 -0.448,0 -0.756,0.21 -0.294,0.196 -0.294,0.798 v 1.442 h 1.498 v 0.462 h -1.498 v 6.7340003 h -0.532 V 7.8620007 Z m 3.57198,3.1360003 q 0,-0.77 0.21,-1.4420003 0.224,-0.686 0.644,-1.204 0.42,-0.518 1.036,-0.812 0.616,-0.308 1.414,-0.308 0.798,0 1.414,0.308 0.616,0.294 1.036,0.812 0.42,0.518 0.63,1.204 0.224,0.6720003 0.224,1.4420003 0,0.77 -0.224,1.456 -0.21,0.686 -0.63,1.204 -0.42,0.504 -1.036,0.812 -0.616,0.294 -1.414,0.294 -0.798,0 -1.414,-0.294 -0.616,-0.308 -1.036,-0.812 -0.42,-0.518 -0.644,-1.204 -0.21,-0.686 -0.21,-1.456 z m 0.532,0 q 0,0.644 0.182,1.246 0.182,0.588 0.532,1.05 0.35,0.462 0.868,0.742 0.518,0.266 1.19,0.266 0.672,0 1.19,-0.266 0.518,-0.28 0.868,-0.742 0.35,-0.462 0.532,-1.05 0.182,-0.602 0.182,-1.246 0,-0.644 -0.182,-1.2320003 -0.182,-0.602 -0.532,-1.064 -0.35,-0.462 -0.868,-0.728 -0.518,-0.28 -1.19,-0.28 -0.672,0 -1.19,0.28 -0.518,0.266 -0.868,0.728 -0.35,0.462 -0.532,1.064 -0.182,0.5880003 -0.182,1.2320003 z m 7.60399,-2.0020003 h 0.042 q 0.098,-0.35 0.35,-0.658 0.266,-0.308 0.63,-0.532 0.378,-0.224 0.826,-0.336 0.462,-0.126 0.952,-0.112 v 0.532 q -0.42,-0.056 -0.966,0.084 -0.532,0.14 -1.022,0.616 -0.196,0.21 -0.35,0.406 -0.14,0.196 -0.238,0.434 -0.098,0.238 -0.154,0.532 -0.056,0.2940003 -0.07,0.7000003 v 3.934 h -0.532 V 7.4000007 h 0.532 z m 3.124,-1.596 h 0.532 v 1.47 h 0.028 q 0.084,-0.336 0.294,-0.63 0.21,-0.308 0.504,-0.532 0.308,-0.224 0.672,-0.35 0.378,-0.126 0.784,-0.126 0.518,0 0.896,0.14 0.378,0.126 0.644,0.35 0.266,0.21 0.42,0.49 0.154,0.266 0.21,0.546 h 0.028 q 0.322,-0.756 0.854,-1.134 0.546,-0.392 1.428,-0.392 0.49,0 0.896,0.154 0.42,0.14 0.714,0.448 0.308,0.294 0.476,0.756 0.168,0.462 0.168,1.092 v 4.9140003 h -0.532 V 9.6680007 q 0,-0.686 -0.21,-1.078 -0.21,-0.392 -0.504,-0.588 -0.28,-0.21 -0.574,-0.252 -0.28,-0.056 -0.434,-0.056 -0.49,0 -0.91,0.168 -0.406,0.168 -0.714,0.504 -0.294,0.336 -0.462,0.84 -0.168,0.49 -0.168,1.1340003 v 4.256 h -0.532 V 9.6680007 q 0,-0.672 -0.21,-1.064 -0.196,-0.406 -0.476,-0.602 -0.266,-0.196 -0.56,-0.252 -0.28,-0.056 -0.448,-0.056 -0.378,0 -0.784,0.154 -0.406,0.154 -0.742,0.476 -0.336,0.322 -0.546,0.826 -0.21,0.504 -0.21,1.1900003 v 4.256 h -0.532 z m 15.65399,5.7680003 h -0.028 q -0.126,0.322 -0.364,0.616 -0.238,0.28 -0.588,0.504 -0.336,0.224 -0.77,0.35 -0.434,0.126 -0.952,0.126 -1.148,0 -1.778,-0.49 -0.63,-0.504 -0.63,-1.54 0,-0.63 0.252,-1.022 0.252,-0.406 0.63,-0.63 0.392,-0.238 0.854,-0.336 0.476,-0.098 0.91,-0.14 l 0.826,-0.07 q 0.574,-0.042 0.896,-0.126 0.336,-0.098 0.504,-0.252 0.168,-0.1680003 0.21,-0.4200003 0.042,-0.252 0.042,-0.63 0,-0.294 -0.112,-0.546 -0.112,-0.252 -0.35,-0.448 -0.238,-0.196 -0.616,-0.308 -0.378,-0.112 -0.924,-0.112 -0.966,0 -1.568,0.476 -0.588,0.476 -0.644,1.442 h -0.532 q 0.056,-1.19 0.756,-1.778 0.714,-0.602 2.016,-0.602 1.302,0 1.89,0.518 0.602,0.504 0.602,1.33 v 4.1860003 q 0,0.154 0,0.308 0.014,0.154 0.056,0.28 0.042,0.126 0.14,0.21 0.098,0.07 0.28,0.07 0.14,0 0.392,-0.042 v 0.448 q -0.21,0.056 -0.434,0.056 -0.322,0 -0.518,-0.084 -0.182,-0.084 -0.28,-0.224 -0.098,-0.14 -0.14,-0.322 -0.028,-0.196 -0.028,-0.42 z m 0,-2.66 q -0.196,0.238 -0.602,0.322 -0.392,0.084 -0.882,0.126 l -0.896,0.084 q -0.392,0.042 -0.784,0.126 -0.392,0.07 -0.714,0.252 -0.308,0.182 -0.504,0.504 -0.196,0.308 -0.196,0.812 0,0.798 0.504,1.19 0.504,0.378 1.386,0.378 0.91,0 1.442,-0.322 0.532,-0.336 0.812,-0.756 0.28,-0.434 0.35,-0.826 0.084,-0.406 0.084,-0.546 z m 4.62197,-2.6460003 h -1.568 v 5.0260003 q 0,0.434 0.098,0.686 0.098,0.252 0.294,0.392 0.21,0.126 0.49,0.154 0.294,0.028 0.672,0.014 v 0.462 q -0.406,0.028 -0.798,0 -0.378,-0.042 -0.672,-0.21 -0.294,-0.182 -0.476,-0.532 -0.168,-0.35 -0.14,-0.966 V 7.8620007 h -1.33 v -0.462 h 1.33 v -2.24 h 0.532 v 2.24 h 1.568 z m 0.85599,-1.82 v -1.442 h 0.532 v 1.442 z m 0,8.5540003 V 7.4000007 h 0.532 v 7.1960003 z m 1.63999,-3.598 q 0,-0.77 0.21,-1.4420003 0.224,-0.686 0.644,-1.204 0.42,-0.518 1.036,-0.812 0.616,-0.308 1.414,-0.308 0.798,0 1.414,0.308 0.616,0.294 1.036,0.812 0.42,0.518 0.63,1.204 0.224,0.6720003 0.224,1.4420003 0,0.77 -0.224,1.456 -0.21,0.686 -0.63,1.204 -0.42,0.504 -1.036,0.812 -0.616,0.294 -1.414,0.294 -0.798,0 -1.414,-0.294 -0.616,-0.308 -1.036,-0.812 -0.42,-0.518 -0.644,-1.204 -0.21,-0.686 -0.21,-1.456 z m 0.532,0 q 0,0.644 0.182,1.246 0.182,0.588 0.532,1.05 0.35,0.462 0.868,0.742 0.518,0.266 1.19,0.266 0.672,0 1.19,-0.266 0.518,-0.28 0.868,-0.742 0.35,-0.462 0.532,-1.05 0.182,-0.602 0.182,-1.246 0,-0.644 -0.182,-1.2320003 -0.182,-0.602 -0.532,-1.064 -0.35,-0.462 -0.868,-0.728 -0.518,-0.28 -1.19,-0.28 -0.672,0 -1.19,0.28 -0.518,0.266 -0.868,0.728 -0.35,0.462 -0.532,1.064 -0.182,0.5880003 -0.182,1.2320003 z m 7.07198,-3.5980003 h 0.532 v 1.54 h 0.028 q 0.14,-0.406 0.392,-0.714 0.266,-0.322 0.602,-0.546 0.35,-0.224 0.756,-0.336 0.406,-0.112 0.826,-0.112 0.63,0 1.064,0.154 0.448,0.154 0.728,0.406 0.28,0.252 0.434,0.574 0.168,0.308 0.238,0.63 0.07,0.322 0.084,0.63 0.014,0.294 0.014,0.5180003 v 4.452 h -0.532 v -4.55 q 0,-0.2660003 -0.042,-0.6720003 -0.042,-0.406 -0.252,-0.77 -0.196,-0.378 -0.616,-0.644 -0.406,-0.266 -1.134,-0.266 -0.616,0 -1.092,0.224 -0.476,0.224 -0.812,0.63 -0.336,0.392 -0.518,0.952 -0.168,0.5460003 -0.168,1.2040003 v 3.892 h -0.532 z m 16.21599,5.6560003 h -0.028 q -0.448,0.854 -1.12,1.288 -0.672,0.42 -1.638,0.42 -0.812,0 -1.4,-0.308 -0.588,-0.308 -0.966,-0.826 -0.378,-0.518 -0.56,-1.19 -0.182,-0.686 -0.182,-1.428 0,-0.798 0.196,-1.4840003 0.196,-0.7 0.588,-1.204 0.406,-0.504 1.008,-0.798 0.602,-0.294 1.414,-0.294 0.434,0 0.854,0.126 0.42,0.112 0.77,0.336 0.364,0.224 0.63,0.56 0.266,0.336 0.406,0.756 h 0.028 v -4.41 h 0.532 v 9.9960003 h -0.532 z m -2.674,1.246 q 0.686,0 1.176,-0.28 0.504,-0.28 0.826,-0.742 0.336,-0.462 0.49,-1.05 0.168,-0.602 0.168,-1.218 0,-0.63 -0.168,-1.2180003 -0.154,-0.602 -0.476,-1.064 -0.322,-0.476 -0.84,-0.756 -0.504,-0.28 -1.19,-0.28 -0.714,0 -1.218,0.28 -0.504,0.266 -0.84,0.728 -0.322,0.462 -0.476,1.064 -0.14,0.6020003 -0.14,1.2460003 0,0.63 0.154,1.232 0.168,0.588 0.49,1.05 0.336,0.462 0.84,0.742 0.504,0.266 1.204,0.266 z m 4.85999,-3.234 v 0.084 q 0,0.63 0.168,1.204 0.168,0.574 0.49,1.008 0.336,0.434 0.826,0.686 0.504,0.252 1.162,0.252 1.078,0 1.708,-0.56 0.63,-0.574 0.868,-1.582 h 0.532 q -0.238,1.26 -1.036,1.932 -0.784,0.672 -2.086,0.672 -0.798,0 -1.4,-0.28 -0.588,-0.294 -0.994,-0.784 -0.392,-0.504 -0.588,-1.176 -0.196,-0.686 -0.196,-1.47 0,-0.756 0.196,-1.4420003 0.21,-0.7 0.616,-1.218 0.406,-0.532 1.008,-0.84 0.616,-0.322 1.442,-0.322 0.756,0 1.33,0.28 0.588,0.28 0.98,0.77 0.392,0.476 0.588,1.12 0.21,0.6300003 0.21,1.3580003 0,0.07 -0.014,0.168 0,0.084 0,0.14 z m 5.278,-0.462 q -0.028,-0.588 -0.196,-1.1060003 -0.168,-0.532 -0.504,-0.924 -0.322,-0.406 -0.798,-0.644 -0.462,-0.238 -1.064,-0.238 -0.644,0 -1.134,0.252 -0.49,0.238 -0.826,0.644 -0.336,0.392 -0.518,0.924 -0.182,0.5320003 -0.224,1.0920003 z m 1.78,1.596 q 0.028,0.504 0.224,0.896 0.196,0.378 0.504,0.658 0.322,0.266 0.742,0.406 0.42,0.14 0.91,0.14 0.35,0 0.742,-0.056 0.406,-0.07 0.742,-0.238 0.35,-0.168 0.574,-0.462 0.224,-0.308 0.224,-0.77 0,-0.602 -0.364,-0.91 -0.364,-0.308 -0.924,-0.476 -0.546,-0.168 -1.19,-0.266 -0.63,-0.112 -1.19,-0.322 -0.546,-0.21 -0.91,-0.588 -0.364,-0.3920003 -0.364,-1.1340003 0,-0.532 0.238,-0.882 0.238,-0.364 0.602,-0.574 0.378,-0.21 0.84,-0.294 0.462,-0.098 0.924,-0.098 0.56,0 1.05,0.126 0.49,0.126 0.84,0.406 0.364,0.28 0.56,0.714 0.21,0.434 0.21,1.05 h -0.532 q 0,-0.49 -0.168,-0.84 -0.154,-0.35 -0.448,-0.56 -0.28,-0.224 -0.672,-0.322 -0.392,-0.112 -0.84,-0.112 -0.364,0 -0.742,0.07 -0.364,0.07 -0.658,0.238 -0.294,0.168 -0.49,0.434 -0.182,0.266 -0.182,0.644 0,0.434 0.21,0.7 0.21,0.2660003 0.546,0.4340003 0.35,0.154 0.77,0.252 0.434,0.098 0.868,0.196 0.532,0.098 0.994,0.238 0.476,0.126 0.812,0.364 0.35,0.224 0.546,0.588 0.196,0.364 0.196,0.924 0,0.588 -0.266,0.966 -0.266,0.378 -0.672,0.616 -0.406,0.224 -0.91,0.308 -0.49,0.098 -0.966,0.098 -0.616,0 -1.148,-0.168 -0.518,-0.154 -0.91,-0.476 -0.392,-0.336 -0.616,-0.812 -0.224,-0.476 -0.238,-1.106 z"
         id="path35" /><path
         style="-inkscape-font-specification:'Helvetica Neue Ultra-Light';fill:#000000"
         d="m 229.66801,23.325138 h 0.042 q 0.098,-0.35 0.35,-0.658 0.266,-0.308 0.63,-0.532 0.378,-0.224 0.826,-0.336 0.462,-0.126 0.952,-0.112 v 0.532 q -0.42,-0.056 -0.966,0.084 -0.532,0.14 -1.022,0.616 -0.196,0.21 -0.35,0.406 -0.14,0.196 -0.238,0.434 -0.098,0.238 -0.154,0.532 -0.056,0.294 -0.07,0.7 v 3.934 h -0.532 v -7.196 h 0.532 z m 3.15198,2.072 v 0.084 q 0,0.63 0.168,1.204 0.168,0.574 0.49,1.008 0.336,0.434 0.826,0.686 0.504,0.252 1.162,0.252 1.078,0 1.708,-0.56 0.63,-0.574 0.868,-1.582 h 0.532 q -0.238,1.26 -1.036,1.932 -0.784,0.672 -2.086,0.672 -0.798,0 -1.4,-0.28 -0.588,-0.294 -0.994,-0.784 -0.392,-0.504 -0.588,-1.176 -0.196,-0.686 -0.196,-1.47 0,-0.756 0.196,-1.442 0.21,-0.7 0.616,-1.218 0.406,-0.532 1.008,-0.84 0.616,-0.322 1.442,-0.322 0.756,0 1.33,0.28 0.588,0.28 0.98,0.77 0.392,0.476 0.588,1.12 0.21,0.63 0.21,1.358 0,0.07 -0.014,0.168 0,0.084 0,0.14 z m 5.278,-0.462 q -0.028,-0.588 -0.196,-1.106 -0.168,-0.532 -0.504,-0.924 -0.322,-0.406 -0.798,-0.644 -0.462,-0.238 -1.064,-0.238 -0.644,0 -1.134,0.252 -0.49,0.238 -0.826,0.644 -0.336,0.392 -0.518,0.924 -0.182,0.532 -0.224,1.092 z m 1.77999,1.596 q 0.028,0.504 0.224,0.896 0.196,0.378 0.504,0.658 0.322,0.266 0.742,0.406 0.42,0.14 0.91,0.14 0.35,0 0.742,-0.056 0.406,-0.07 0.742,-0.238 0.35,-0.168 0.574,-0.462 0.224,-0.308 0.224,-0.77 0,-0.602 -0.364,-0.91 -0.364,-0.308 -0.924,-0.476 -0.546,-0.168 -1.19,-0.266 -0.63,-0.112 -1.19,-0.322 -0.546,-0.21 -0.91,-0.588 -0.364,-0.392 -0.364,-1.134 0,-0.532 0.238,-0.882 0.238,-0.364 0.602,-0.574 0.378,-0.21 0.84,-0.294 0.462,-0.098 0.924,-0.098 0.56,0 1.05,0.126 0.49,0.126 0.84,0.406 0.364,0.28 0.56,0.714 0.21,0.434 0.21,1.05 h -0.532 q 0,-0.49 -0.168,-0.84 -0.154,-0.35 -0.448,-0.56 -0.28,-0.224 -0.672,-0.322 -0.392,-0.112 -0.84,-0.112 -0.364,0 -0.742,0.07 -0.364,0.07 -0.658,0.238 -0.294,0.168 -0.49,0.434 -0.182,0.266 -0.182,0.644 0,0.434 0.21,0.7 0.21,0.266 0.546,0.434 0.35,0.154 0.77,0.252 0.434,0.098 0.868,0.196 0.532,0.098 0.994,0.238 0.476,0.126 0.812,0.364 0.35,0.224 0.546,0.588 0.196,0.364 0.196,0.924 0,0.588 -0.266,0.966 -0.266,0.378 -0.672,0.616 -0.406,0.224 -0.91,0.308 -0.49,0.098 -0.966,0.098 -0.616,0 -1.148,-0.168 -0.518,-0.154 -0.91,-0.476 -0.392,-0.336 -0.616,-0.812 -0.224,-0.476 -0.238,-1.106 z m 6.48398,0 q 0.028,0.504 0.224,0.896 0.196,0.378 0.504,0.658 0.322,0.266 0.742,0.406 0.42,0.14 0.91,0.14 0.35,0 0.742,-0.056 0.406,-0.07 0.742,-0.238 0.35,-0.168 0.574,-0.462 0.224,-0.308 0.224,-0.77 0,-0.602 -0.364,-0.91 -0.364,-0.308 -0.924,-0.476 -0.546,-0.168 -1.19,-0.266 -0.63,-0.112 -1.19,-0.322 -0.546,-0.21 -0.91,-0.588 -0.364,-0.392 -0.364,-1.134 0,-0.532 0.238,-0.882 0.238,-0.364 0.602,-0.574 0.378,-0.21 0.84,-0.294 0.462,-0.098 0.924,-0.098 0.56,0 1.05,0.126 0.49,0.126 0.84,0.406 0.364,0.28 0.56,0.714 0.21,0.434 0.21,1.05 h -0.532 q 0,-0.49 -0.168,-0.84 -0.154,-0.35 -0.448,-0.56 -0.28,-0.224 -0.672,-0.322 -0.392,-0.112 -0.84,-0.112 -0.364,0 -0.742,0.07 -0.364,0.07 -0.658,0.238 -0.294,0.168 -0.49,0.434 -0.182,0.266 -0.182,0.644 0,0.434 0.21,0.7 0.21,0.266 0.546,0.434 0.35,0.154 0.77,0.252 0.434,0.098 0.868,0.196 0.532,0.098 0.994,0.238 0.476,0.126 0.812,0.364 0.35,0.224 0.546,0.588 0.196,0.364 0.196,0.924 0,0.588 -0.266,0.966 -0.266,0.378 -0.672,0.616 -0.406,0.224 -0.91,0.308 -0.49,0.098 -0.966,0.098 -0.616,0 -1.148,-0.168 -0.518,-0.154 -0.91,-0.476 -0.392,-0.336 -0.616,-0.812 -0.224,-0.476 -0.238,-1.106 z m 5.89599,-1.204 q 0,-0.77 0.21,-1.442 0.224,-0.686 0.644,-1.204 0.42,-0.518 1.036,-0.812 0.616,-0.308 1.414,-0.308 0.798,0 1.414,0.308 0.616,0.294 1.036,0.812 0.42,0.518 0.63,1.204 0.224,0.672 0.224,1.442 0,0.77 -0.224,1.456 -0.21,0.686 -0.63,1.204 -0.42,0.504 -1.036,0.812 -0.616,0.294 -1.414,0.294 -0.798,0 -1.414,-0.294 -0.616,-0.308 -1.036,-0.812 -0.42,-0.518 -0.644,-1.204 -0.21,-0.686 -0.21,-1.456 z m 0.532,0 q 0,0.644 0.182,1.246 0.182,0.588 0.532,1.05 0.35,0.462 0.868,0.742 0.518,0.266 1.19,0.266 0.672,0 1.19,-0.266 0.518,-0.28 0.868,-0.742 0.35,-0.462 0.532,-1.05 0.182,-0.602 0.182,-1.246 0,-0.644 -0.182,-1.232 -0.182,-0.602 -0.532,-1.064 -0.35,-0.462 -0.868,-0.728 -0.518,-0.28 -1.19,-0.28 -0.672,0 -1.19,0.28 -0.518,0.266 -0.868,0.728 -0.35,0.462 -0.532,1.064 -0.182,0.588 -0.182,1.232 z m 12.76998,3.598 h -0.532 v -1.54 h -0.028 q -0.14,0.406 -0.406,0.728 -0.252,0.308 -0.602,0.532 -0.336,0.224 -0.742,0.336 -0.406,0.112 -0.826,0.112 -0.63,0 -1.078,-0.154 -0.434,-0.154 -0.714,-0.406 -0.28,-0.252 -0.448,-0.56 -0.154,-0.322 -0.224,-0.644 -0.07,-0.322 -0.084,-0.616 -0.014,-0.308 -0.014,-0.532 v -4.452 h 0.532 v 4.55 q 0,0.28 0.042,0.686 0.042,0.392 0.238,0.77 0.21,0.364 0.616,0.63 0.406,0.266 1.148,0.266 0.602,0 1.078,-0.224 0.49,-0.224 0.826,-0.616 0.336,-0.406 0.504,-0.952 0.182,-0.56 0.182,-1.218 v -3.892 h 0.532 z m 1.84999,-5.6 h 0.042 q 0.098,-0.35 0.35,-0.658 0.266,-0.308 0.63,-0.532 0.378,-0.224 0.826,-0.336 0.462,-0.126 0.952,-0.112 v 0.532 q -0.42,-0.056 -0.966,0.084 -0.532,0.14 -1.022,0.616 -0.196,0.21 -0.35,0.406 -0.14,0.196 -0.238,0.434 -0.098,0.238 -0.154,0.532 -0.056,0.294 -0.07,0.7 v 3.934 h -0.532 v -7.196 h 0.532 z m 8.35998,0.63 q -0.042,-0.476 -0.252,-0.84 -0.196,-0.364 -0.518,-0.602 -0.322,-0.238 -0.756,-0.364 -0.42,-0.126 -0.91,-0.126 -0.672,0 -1.19,0.28 -0.518,0.266 -0.868,0.728 -0.35,0.448 -0.532,1.036 -0.182,0.574 -0.182,1.19 0,0.728 0.168,1.344 0.168,0.616 0.518,1.078 0.35,0.448 0.868,0.7 0.518,0.252 1.218,0.252 0.504,0 0.924,-0.168 0.434,-0.168 0.756,-0.462 0.336,-0.294 0.546,-0.7 0.21,-0.42 0.28,-0.91 h 0.532 q -0.084,0.644 -0.35,1.148 -0.266,0.504 -0.672,0.854 -0.406,0.336 -0.924,0.518 -0.518,0.182 -1.092,0.182 -0.882,0 -1.512,-0.308 -0.616,-0.322 -1.022,-0.854 -0.392,-0.532 -0.588,-1.218 -0.182,-0.7 -0.182,-1.456 0,-0.756 0.21,-1.428 0.224,-0.672 0.644,-1.176 0.42,-0.504 1.036,-0.798 0.616,-0.294 1.414,-0.294 0.588,0 1.092,0.154 0.518,0.14 0.91,0.434 0.406,0.294 0.658,0.756 0.252,0.448 0.308,1.05 z m 1.80799,1.442 v 0.084 q 0,0.63 0.168,1.204 0.168,0.574 0.49,1.008 0.336,0.434 0.826,0.686 0.504,0.252 1.162,0.252 1.078,0 1.708,-0.56 0.63,-0.574 0.868,-1.582 h 0.532 q -0.238,1.26 -1.036,1.932 -0.784,0.672 -2.086,0.672 -0.798,0 -1.4,-0.28 -0.588,-0.294 -0.994,-0.784 -0.392,-0.504 -0.588,-1.176 -0.196,-0.686 -0.196,-1.47 0,-0.756 0.196,-1.442 0.21,-0.7 0.616,-1.218 0.406,-0.532 1.008,-0.84 0.616,-0.322 1.442,-0.322 0.756,0 1.33,0.28 0.588,0.28 0.98,0.77 0.392,0.476 0.588,1.12 0.21,0.63 0.21,1.358 0,0.07 -0.014,0.168 0,0.084 0,0.14 z m 5.278,-0.462 q -0.028,-0.588 -0.196,-1.106 -0.168,-0.532 -0.504,-0.924 -0.322,-0.406 -0.798,-0.644 -0.462,-0.238 -1.064,-0.238 -0.644,0 -1.134,0.252 -0.49,0.238 -0.826,0.644 -0.336,0.392 -0.518,0.924 -0.182,0.532 -0.224,1.092 z m 1.77999,1.596 q 0.028,0.504 0.224,0.896 0.196,0.378 0.504,0.658 0.322,0.266 0.742,0.406 0.42,0.14 0.91,0.14 0.35,0 0.742,-0.056 0.406,-0.07 0.742,-0.238 0.35,-0.168 0.574,-0.462 0.224,-0.308 0.224,-0.77 0,-0.602 -0.364,-0.91 -0.364,-0.308 -0.924,-0.476 -0.546,-0.168 -1.19,-0.266 -0.63,-0.112 -1.19,-0.322 -0.546,-0.21 -0.91,-0.588 -0.364,-0.392 -0.364,-1.134 0,-0.532 0.238,-0.882 0.238,-0.364 0.602,-0.574 0.378,-0.21 0.84,-0.294 0.462,-0.098 0.924,-0.098 0.56,0 1.05,0.126 0.49,0.126 0.84,0.406 0.364,0.28 0.56,0.714 0.21,0.434 0.21,1.05 h -0.532 q 0,-0.49 -0.168,-0.84 -0.154,-0.35 -0.448,-0.56 -0.28,-0.224 -0.672,-0.322 -0.392,-0.112 -0.84,-0.112 -0.364,0 -0.742,0.07 -0.364,0.07 -0.658,0.238 -0.294,0.168 -0.49,0.434 -0.182,0.266 -0.182,0.644 0,0.434 0.21,0.7 0.21,0.266 0.546,0.434 0.35,0.154 0.77,0.252 0.434,0.098 0.868,0.196 0.532,0.098 0.994,0.238 0.476,0.126 0.812,0.364 0.35,0.224 0.546,0.588 0.196,0.364 0.196,0.924 0,0.588 -0.266,0.966 -0.266,0.378 -0.672,0.616 -0.406,0.224 -0.91,0.308 -0.49,0.098 -0.966,0.098 -0.616,0 -1.148,-0.168 -0.518,-0.154 -0.91,-0.476 -0.392,-0.336 -0.616,-0.812 -0.224,-0.476 -0.238,-1.106 z m 10.40598,-7.602 v 4.34 h 0.028 q 0.14,-0.406 0.392,-0.714 0.266,-0.322 0.602,-0.546 0.35,-0.224 0.756,-0.336 0.406,-0.112 0.826,-0.112 0.63,0 1.064,0.154 0.448,0.154 0.728,0.406 0.28,0.252 0.434,0.574 0.168,0.308 0.238,0.63 0.07,0.322 0.084,0.63 0.014,0.294 0.014,0.518 v 4.452 h -0.532 v -4.55 q 0,-0.266 -0.042,-0.672 -0.042,-0.406 -0.252,-0.77 -0.196,-0.378 -0.616,-0.644 -0.406,-0.266 -1.134,-0.266 -0.616,0 -1.092,0.224 -0.476,0.224 -0.812,0.63 -0.336,0.392 -0.518,0.952 -0.168,0.546 -0.168,1.204 v 3.892 h -0.532 v -9.996 z m 12.18199,9.996 h -0.532 v -1.54 h -0.028 q -0.14,0.406 -0.406,0.728 -0.252,0.308 -0.602,0.532 -0.336,0.224 -0.742,0.336 -0.406,0.112 -0.826,0.112 -0.63,0 -1.078,-0.154 -0.434,-0.154 -0.714,-0.406 -0.28,-0.252 -0.448,-0.56 -0.154,-0.322 -0.224,-0.644 -0.07,-0.322 -0.084,-0.616 -0.014,-0.308 -0.014,-0.532 v -4.452 h 0.532 v 4.55 q 0,0.28 0.042,0.686 0.042,0.392 0.238,0.77 0.21,0.364 0.616,0.63 0.406,0.266 1.148,0.266 0.602,0 1.078,-0.224 0.49,-0.224 0.826,-0.616 0.336,-0.406 0.504,-0.952 0.182,-0.56 0.182,-1.218 v -3.892 h 0.532 z m 1.33199,-7.196 h 0.532 v 1.47 h 0.028 q 0.084,-0.336 0.294,-0.63 0.21,-0.308 0.504,-0.532 0.308,-0.224 0.672,-0.35 0.378,-0.126 0.784,-0.126 0.518,0 0.896,0.14 0.378,0.126 0.644,0.35 0.266,0.21 0.42,0.49 0.154,0.266 0.21,0.546 h 0.028 q 0.322,-0.756 0.854,-1.134 0.546,-0.392 1.428,-0.392 0.49,0 0.896,0.154 0.42,0.14 0.714,0.448 0.308,0.294 0.476,0.756 0.168,0.462 0.168,1.092 v 4.914 h -0.532 v -4.928 q 0,-0.686 -0.21,-1.078 -0.21,-0.392 -0.504,-0.588 -0.28,-0.21 -0.574,-0.252 -0.28,-0.056 -0.434,-0.056 -0.49,0 -0.91,0.168 -0.406,0.168 -0.714,0.504 -0.294,0.336 -0.462,0.84 -0.168,0.49 -0.168,1.134 v 4.256 h -0.532 v -4.928 q 0,-0.672 -0.21,-1.064 -0.196,-0.406 -0.476,-0.602 -0.266,-0.196 -0.56,-0.252 -0.28,-0.056 -0.448,-0.056 -0.378,0 -0.784,0.154 -0.406,0.154 -0.742,0.476 -0.336,0.322 -0.546,0.826 -0.21,0.504 -0.21,1.19 v 4.256 h -0.532 z m 15.65398,5.768 h -0.028 q -0.126,0.322 -0.364,0.616 -0.238,0.28 -0.588,0.504 -0.336,0.224 -0.77,0.35 -0.434,0.126 -0.952,0.126 -1.148,0 -1.778,-0.49 -0.63,-0.504 -0.63,-1.54 0,-0.63 0.252,-1.022 0.252,-0.406 0.63,-0.63 0.392,-0.238 0.854,-0.336 0.476,-0.098 0.91,-0.14 l 0.826,-0.07 q 0.574,-0.042 0.896,-0.126 0.336,-0.098 0.504,-0.252 0.168,-0.168 0.21,-0.42 0.042,-0.252 0.042,-0.63 0,-0.294 -0.112,-0.546 -0.112,-0.252 -0.35,-0.448 -0.238,-0.196 -0.616,-0.308 -0.378,-0.112 -0.924,-0.112 -0.966,0 -1.568,0.476 -0.588,0.476 -0.644,1.442 h -0.532 q 0.056,-1.19 0.756,-1.778 0.714,-0.602 2.016,-0.602 1.302,0 1.89,0.518 0.602,0.504 0.602,1.33 v 4.186 q 0,0.154 0,0.308 0.014,0.154 0.056,0.28 0.042,0.126 0.14,0.21 0.098,0.07 0.28,0.07 0.14,0 0.392,-0.042 v 0.448 q -0.21,0.056 -0.434,0.056 -0.322,0 -0.518,-0.084 -0.182,-0.084 -0.28,-0.224 -0.098,-0.14 -0.14,-0.322 -0.028,-0.196 -0.028,-0.42 z m 0,-2.66 q -0.196,0.238 -0.602,0.322 -0.392,0.084 -0.882,0.126 l -0.896,0.084 q -0.392,0.042 -0.784,0.126 -0.392,0.07 -0.714,0.252 -0.308,0.182 -0.504,0.504 -0.196,0.308 -0.196,0.812 0,0.798 0.504,1.19 0.504,0.378 1.386,0.378 0.91,0 1.442,-0.322 0.532,-0.336 0.812,-0.756 0.28,-0.434 0.35,-0.826 0.084,-0.406 0.084,-0.546 z m 2.10198,-4.466 v -1.442 h 0.532 v 1.442 z m 0,8.554 v -7.196 h 0.532 v 7.196 z m 1.97599,-7.196 h 0.532 v 1.54 h 0.028 q 0.14,-0.406 0.392,-0.714 0.266,-0.322 0.602,-0.546 0.35,-0.224 0.756,-0.336 0.406,-0.112 0.826,-0.112 0.63,0 1.064,0.154 0.448,0.154 0.728,0.406 0.28,0.252 0.434,0.574 0.168,0.308 0.238,0.63 0.07,0.322 0.084,0.63 0.014,0.294 0.014,0.518 v 4.452 h -0.532 v -4.55 q 0,-0.266 -0.042,-0.672 -0.042,-0.406 -0.252,-0.77 -0.196,-0.378 -0.616,-0.644 -0.406,-0.266 -1.134,-0.266 -0.616,0 -1.092,0.224 -0.476,0.224 -0.812,0.63 -0.336,0.392 -0.518,0.952 -0.168,0.546 -0.168,1.204 v 3.892 h -0.532 z m 7.22599,3.668 v 0.084 q 0,0.63 0.168,1.204 0.168,0.574 0.49,1.008 0.336,0.434 0.826,0.686 0.504,0.252 1.162,0.252 1.078,0 1.708,-0.56 0.63,-0.574 0.868,-1.582 h 0.532 q -0.238,1.26 -1.036,1.932 -0.784,0.672 -2.086,0.672 -0.798,0 -1.4,-0.28 -0.588,-0.294 -0.994,-0.784 -0.392,-0.504 -0.588,-1.176 -0.196,-0.686 -0.196,-1.47 0,-0.756 0.196,-1.442 0.21,-0.7 0.616,-1.218 0.406,-0.532 1.008,-0.84 0.616,-0.322 1.442,-0.322 0.756,0 1.33,0.28 0.588,0.28 0.98,0.77 0.392,0.476 0.588,1.12 0.21,0.63 0.21,1.358 0,0.07 -0.014,0.168 0,0.084 0,0.14 z m 5.278,-0.462 q -0.028,-0.588 -0.196,-1.106 -0.168,-0.532 -0.504,-0.924 -0.322,-0.406 -0.798,-0.644 -0.462,-0.238 -1.064,-0.238 -0.644,0 -1.134,0.252 -0.49,0.238 -0.826,0.644 -0.336,0.392 -0.518,0.924 -0.182,0.532 -0.224,1.092 z m 1.77999,1.596 q 0.028,0.504 0.224,0.896 0.196,0.378 0.504,0.658 0.322,0.266 0.742,0.406 0.42,0.14 0.91,0.14 0.35,0 0.742,-0.056 0.406,-0.07 0.742,-0.238 0.35,-0.168 0.574,-0.462 0.224,-0.308 0.224,-0.77 0,-0.602 -0.364,-0.91 -0.364,-0.308 -0.924,-0.476 -0.546,-0.168 -1.19,-0.266 -0.63,-0.112 -1.19,-0.322 -0.546,-0.21 -0.91,-0.588 -0.364,-0.392 -0.364,-1.134 0,-0.532 0.238,-0.882 0.238,-0.364 0.602,-0.574 0.378,-0.21 0.84,-0.294 0.462,-0.098 0.924,-0.098 0.56,0 1.05,0.126 0.49,0.126 0.84,0.406 0.364,0.28 0.56,0.714 0.21,0.434 0.21,1.05 h -0.532 q 0,-0.49 -0.168,-0.84 -0.154,-0.35 -0.448,-0.56 -0.28,-0.224 -0.672,-0.322 -0.392,-0.112 -0.84,-0.112 -0.364,0 -0.742,0.07 -0.364,0.07 -0.658,0.238 -0.294,0.168 -0.49,0.434 -0.182,0.266 -0.182,0.644 0,0.434 0.21,0.7 0.21,0.266 0.546,0.434 0.35,0.154 0.77,0.252 0.434,0.098 0.868,0.196 0.532,0.098 0.994,0.238 0.476,0.126 0.812,0.364 0.35,0.224 0.546,0.588 0.196,0.364 0.196,0.924 0,0.588 -0.266,0.966 -0.266,0.378 -0.672,0.616 -0.406,0.224 -0.91,0.308 -0.49,0.098 -0.966,0.098 -0.616,0 -1.148,-0.168 -0.518,-0.154 -0.91,-0.476 -0.392,-0.336 -0.616,-0.812 -0.224,-0.476 -0.238,-1.106 z"
         id="path36" /></g></g></svg>
